<?xml version="1.0" encoding="utf-8"?>
<!-- Generator: Adobe Illustrator 24.0.1, SVG Export Plug-In . SVG Version: 6.00 Build 0)  -->
<svg version="1.1" id="Слой_1" xmlns="http://www.w3.org/2000/svg" xmlns:xlink="http://www.w3.org/1999/xlink" x="0px" y="0px"
	 viewBox="0 0 3000 3000" style="enable-background:new 0 0 3000 3000;" xml:space="preserve">
<style type="text/css">
	.st0{opacity:0.12;}
	.st1{fill:none;stroke:#000000;stroke-linecap:round;stroke-linejoin:round;stroke-miterlimit:10;}
	.st2{fill:none;stroke:#F6C76E;stroke-linecap:round;stroke-linejoin:round;stroke-miterlimit:10;}
	.st3{fill:#DCC289;}
	.st4{clip-path:url(#SVGID_2_);}
	.st5{opacity:0.74;}
	.st6{clip-path:url(#SVGID_4_);}
	.st7{fill:#7A1251;}
	.st8{display:none;}
	.st9{display:inline;fill:#7A1251;}
</style>
<g>
	<g>
		<g class="st0">
			<g>
				<g>
					<g>
						<g>
							<g>
								<path class="st1" d="M1447.4,617.2"/>
							</g>
						</g>
					</g>
				</g>
			</g>
		</g>
		<g>
			<g>
				<g>
					<g>
						<g>
							<g>
								<path class="st2" d="M1451.4,613.1"/>
							</g>
						</g>
					</g>
				</g>
			</g>
		</g>
	</g>
	<g>
		<g>
			<g>
				<g>
					<g>
						<path class="st3" d="M1654.8,889.5c-12.2,3.7-23.8,9-34.4,16s-20.1,15.6-29.1,25.3c-4.5,4.8-8.8,9.8-13.3,14.9
							c-2.2,2.5-4.6,5.1-6.8,7.6c-2.2,2.4-4.4,4.9-6.6,7.4c-8.7,9.9-16.6,20.6-24.7,31.3c-8,10.8-16.2,21.6-24.8,32
							c-8.6,10.5-17.4,20.7-26.5,30.6c-18.2,19.9-37.5,38.8-57.9,56.4c-0.9,0.8-2.2,0.7-3-0.2c-0.7-0.9-0.7-2.2,0.2-2.9
							c19.7-18.2,38.1-37.6,55.5-57.9c8.7-10.2,17.1-20.6,25.1-31.2c8.1-10.6,15.8-21.5,23.4-32.5s15.4-22.2,24-32.8
							c2.1-2.7,4.3-5.3,6.6-7.9c2.2-2.6,4.2-5,6.4-7.6c4.2-5.2,8.4-10.5,12.9-15.7c8.9-10.5,18.9-20.5,30.4-28.7
							c11.5-8.3,24.3-14.7,37.6-19.4c4.2-1.5,8.9,0.7,10.4,5c1.5,4.2-0.7,8.9-5,10.4C1655,889.4,1654.9,889.4,1654.8,889.5z"/>
					</g>
				</g>
			</g>
		</g>
	</g>
	<g>
		<g>
			<g>
				<g>
					<g>
						<path class="st3" d="M1555.9,835.9c-0.4-2.5,0.9-5.1,2.8-6.9c1.9-1.8,4.3-3,6.8-3.4c2.5-0.5,5.1-0.4,7.7,0.4
							c1.3,0.4,2.7,1,4.1,1.9l2.5,1.8c2.8,2,5.8,3.7,8.6,4.9c2.8,1.1,5.3,1.5,8.3,1.2c0.7-0.1,1.6-0.2,2.4-0.3
							c0.5-0.1,0.6-0.1,0.9-0.2c0.3-0.1,0.5-0.2,0.8-0.3c1.1-0.4,2.3-1,3.4-1.9c2.2-1.7,4.3-4.1,6-6.9c3.4-5.6,5.4-12.3,6.1-19.2
							s-0.3-13.8-2.1-20.9c-1.8-7-4.5-13.9-7.5-20.7s-6.6-13.4-10.3-19.9c-1.9-3.2-3.9-6.4-6-9.5s-4.3-6.3-6.6-8.9l-0.1-0.1
							c-0.6-0.7-0.5-1.7,0.1-2.3c0.6-0.5,1.5-0.5,2.1,0c3.1,2.6,5.6,5.5,8.2,8.5c2.5,3,4.8,6,7.1,9.1c4.6,6.2,8.7,12.8,12.5,19.6
							s7,14,9.5,21.6c1.2,3.8,2.2,7.7,2.9,11.8c0.7,4.1,0.9,8.3,0.7,12.4c-0.4,8.3-2.4,16.7-6.6,24.3c-2.2,3.8-4.9,7.4-8.7,10.4
							c-1.9,1.5-4,2.8-6.5,3.8c-0.6,0.2-1.3,0.4-1.9,0.6c-0.6,0.2-1.4,0.3-1.8,0.4c-1,0.2-2.1,0.4-3.2,0.5c-2.3,0.3-4.8,0.4-7.2,0
							c-2.4-0.3-4.8-1-6.9-1.8c-4.3-1.7-7.9-4-11.2-6.4l-2.1-1.6c-0.2-0.1-0.6-0.3-1-0.5c-1-0.4-2.2-0.8-3.5-1.1s-2.7-0.7-4.2-0.9
							C1560.1,835.3,1558.3,835.2,1555.9,835.9z"/>
					</g>
				</g>
			</g>
		</g>
	</g>
	<g>
		<g>
			<g>
				<g>
					<g>
						<path class="st3" d="M1566,796.9c2.6-1.1,4.4-1.6,6.2-1.8c1.8-0.2,3.5,0,5.2-0.3c3.4-0.5,6.6-1.8,9.4-3.6
							c2.7-1.9,5-4.4,6.3-7.4c1.2-3,1.7-6.7,1.7-10.4c-0.1-7.6-1.8-15.4-4-23c-1.1-3.8-2.4-7.6-3.8-11.3s-3-7.5-4.8-10.7l-0.1-0.1
							c-0.7-1.2-0.3-2.6,0.9-3.3c1.1-0.6,2.5-0.3,3.2,0.7c1.3,1.9,2.3,3.7,3.4,5.5c1,1.8,1.9,3.7,2.8,5.6c1.7,3.8,3.3,7.6,4.7,11.6
							c2.7,7.9,5,16.1,5.3,24.8c0.2,4.4-0.1,9-1.9,13.6c-1.7,4.6-4.8,8.7-8.8,11.4c-3.9,2.8-8.6,4.4-13.3,4.9
							c-2.3,0.2-4.7,0.4-7-0.3s-4.4-2.1-5.7-4.7C1565.4,797.6,1565.5,797.1,1566,796.9C1565.9,796.9,1565.9,796.9,1566,796.9
							L1566,796.9z"/>
					</g>
				</g>
			</g>
		</g>
	</g>
	<g>
		<g>
			<g>
				<g>
					<g>
						<path class="st3" d="M1569.9,842.7c-5.6-0.9-11.1-3.2-15.9-6.8c-2.4-1.8-4.7-4-6.5-6.7c-1.9-2.7-3.4-5.8-4-9.6
							c-0.6-3.7,0-8,2.1-11.6c0.5-0.9,1.1-1.7,1.7-2.5c0.7-0.8,1.4-1.6,2.2-2.2c1.5-1.3,3.2-2.3,4.9-3.1c3.4-1.5,6.7-2.2,10-2.5
							s6.5-0.1,9.8,0.6c1.7,0.3,3.4,0.8,5.2,1.6c0.5,0.2,0.9,0.4,1.4,0.7l1,0.5l1.7,0.9c2.2,1.2,4.5,2.3,6.7,3.3
							c4.5,1.9,8.9,3.3,13.3,3.6c2.2,0.2,4.4,0.1,6.7-0.2l1.8-0.2c0.6-0.1,1.3-0.2,1.8-0.3c0.9-0.2,1.9-0.4,2.8-0.8
							c3.7-1.3,7.3-3.9,10.2-7.1c5.9-6.5,9.5-15.6,9.7-24.8c0.3-9.1-2.5-18.7-6.7-27.8s-9.7-18-16-26.3c-3.1-4.2-6.4-8.2-9.8-12.1
							c-1.7-1.9-3.5-3.8-5.3-5.6s-3.7-3.6-5.3-4.9l-0.2-0.2c-2.6-2.1-3.1-5.9-1-8.6c2-2.5,5.7-3,8.3-1.2c2.7,1.9,4.8,3.7,7,5.7
							c2.1,1.9,4.1,3.9,6.1,5.9c3.9,4,7.6,8.2,11.1,12.6c6.9,8.8,13.3,18.1,18.2,28.5c2.5,5.2,4.6,10.6,6.1,16.4
							c1.5,5.7,2.5,11.9,2.2,18.1c-0.5,12.4-5,24.7-13.8,34.1c-4.4,4.7-9.9,8.6-16.3,10.7c-1.6,0.5-3.3,1-5,1.2
							c-0.9,0.2-1.5,0.2-2.2,0.3l-2.2,0.3c-3,0.3-6.2,0.4-9.4,0.1c-6.4-0.5-12.4-2.6-17.7-5.1c-2.7-1.3-5.2-2.6-7.7-4.1
							c-1.1-0.7-2.8-1.7-3-1.8c-0.6-0.3-1.5-0.6-2.5-0.8c-3.9-0.9-8.8-0.8-12,0.6c-0.8,0.3-1.5,0.7-2,1.1c-0.3,0.2-0.5,0.4-0.7,0.6
							c-0.2,0.3-0.4,0.5-0.6,0.8c-0.7,1.1-1,2.4-1,4c0.1,3.3,2.1,7.6,5,11.4c2.9,3.9,6.6,7.6,10.6,11.4l0,0c0.4,0.3,0.4,0.9,0,1.3
							C1570.5,842.7,1570.2,842.7,1569.9,842.7z"/>
					</g>
				</g>
			</g>
		</g>
	</g>
	<g>
		<g>
			<g>
				<g>
					<g>
						<path class="st3" d="M1401.8,1202.3c-16.7,22.5-31.3,46.8-43.6,72.3c-0.9,1.8-3.1,2.6-4.9,1.7c-1.7-0.8-2.5-2.8-1.9-4.5
							c9.7-27.1,22-53.4,36.8-78.5l0,0c2.3-3.9,7.3-5.2,11.2-2.9c3.9,2.3,5.2,7.3,2.9,11.2C1402.1,1201.8,1402,1202.1,1401.8,1202.3
							z"/>
					</g>
				</g>
			</g>
		</g>
	</g>
	<g>
		<g>
			<g>
				<g>
					<g>
						<path class="st3" d="M1610.2,1216.5c5.7,13,8.7,26.5,10.8,39.6c2.1,13.2,3.5,26.3,4.9,39.4c0.2,1.8-1.1,3.4-2.9,3.6
							c-1.6,0.2-3.1-0.9-3.5-2.5l0,0c-3-12.8-6-25.6-9.6-38s-8-24.3-14.2-34.8c-2.3-3.9-1-8.9,2.8-11.2c3.9-2.3,8.9-1,11.2,2.8
							C1609.9,1215.8,1610.1,1216.1,1610.2,1216.5L1610.2,1216.5z"/>
					</g>
				</g>
			</g>
		</g>
	</g>
	<g>
		<g>
			<g>
				<g>
					<g>
						<path class="st3" d="M1448.4,935.1c-0.1,0-0.2,0-0.4,0c-1.4-0.2-2.3-1.5-2.1-2.8c1.3-8.5,2-17.5-2.6-33.9
							c-4.1-13.9-7.9-19.6-13.2-26.7c-0.8-1.1-0.6-2.7,0.5-3.5c1.1-0.8,2.7-0.6,3.5,0.5c5.5,7.3,9.7,13.6,14,28.3
							c4.9,17.4,4.1,27,2.8,36.1C1450.7,934.2,1449.6,935.1,1448.4,935.1z"/>
					</g>
				</g>
			</g>
		</g>
	</g>
	<g>
		<g>
			<g>
				<g>
					<g>
						<path class="st3" d="M1580.1,778.2c-11.8,0-36.8-2.8-52.1-24.3c-11.3-16.1-11.9-35.1-11.9-38.8c0-9.3,2.2-15.1,4-20.2
							c2-5.6,3.8-10.5,2.6-18.9c-2.2-15.4-11.8-25.6-15.9-29.2c-4.6-4.2-9.8-7-15.7-8.6c-20.7-5.5-30.1,5-34,9.5
							c-1,1.1-1.6,1.8-2.4,2.2c-1,0.6-2.2,0.2-2.7-0.7c-0.5-0.9-0.2-2.2,0.7-2.7c0.2-0.2,0.9-0.9,1.4-1.5c4.1-4.6,15-16.7,38-10.7
							c6.5,1.7,12.2,4.8,17.3,9.5c4.4,3.9,14.8,14.9,17.1,31.6c1.3,9.4-0.7,14.9-2.8,20.8c-1.8,5.1-3.7,10.3-3.8,18.9
							c0,2.1,0.3,21.1,11.1,36.4c16.2,22.8,44.4,22.9,52.6,22.5l0.3,4C1583.1,778.2,1581.7,778.2,1580.1,778.2z"/>
					</g>
				</g>
			</g>
		</g>
	</g>
	<g>
		<g>
			<g>
				<g>
					<g>
						<path class="st3" d="M1419.8,959.1c-0.1,0-0.2,0-0.3,0c-1.4-0.2-2.3-1.4-2.1-2.8c1.9-14.4,1-29.3-2.7-43.2
							c-4-14.6-8.1-24.3-13.8-32.4c-0.8-1.1-0.5-2.7,0.6-3.5c1.1-0.8,2.7-0.5,3.5,0.6c6.1,8.6,10.5,18.8,14.6,34
							c3.9,14.5,4.9,30.2,2.9,45.2C1422.1,958.2,1421,959.1,1419.8,959.1z"/>
					</g>
				</g>
			</g>
		</g>
	</g>
	<g>
		<g>
			<g>
				<g>
					<g>
						<path class="st3" d="M1380.1,877.6c9.2-1.2,18.3-3.3,27.1-6.3c4.4-1.5,8.8-3.2,13-5.1c4.3-2,8.7-4.1,12.9-6.3
							c8.5-4.4,16.6-9.3,23.8-15.1c7.2-5.8,13.4-12.7,17.9-20.8l0,0c1-1.9,3.4-2.6,5.3-1.6c1.8,1,2.5,3.2,1.7,5.1
							c-4.3,9.4-10.9,17.8-18.4,24.8s-15.9,12.8-24.4,18c-4.3,2.6-8.6,5.1-13,7.5c-4.5,2.4-9.1,4.6-13.8,6.6c-9.4,4-19.3,7-29.3,9.2
							l0,0c-4.4,0.9-8.7-1.9-9.6-6.3c-0.9-4.4,1.9-8.7,6.3-9.6C1379.7,877.7,1379.9,877.7,1380.1,877.6z"/>
					</g>
				</g>
			</g>
		</g>
	</g>
	<g>
		<g>
			<g>
				<g>
					<g>
						<path class="st3" d="M1428.5,630c-6.1,3.1-11.5,8.5-15.8,14.7s-7.6,13.3-9.6,20.8c-1,3.7-1.7,7.5-2.1,11.3
							c-0.1,1-0.1,1.9-0.2,2.9c0,0.9,0,1.8,0.1,2.7c0.2,1.8,0.4,3.7,0.9,5.5c0.9,3.7,2.2,7.3,3.8,10.8c0.8,1.8,1.8,3.5,2.7,5.1
							c0.5,0.8,1,1.6,1.5,2.4c0.5,0.7,1.1,1.6,1.5,2l0.1,0.1c1.3,1.4,1.3,3.6-0.1,5c-1.4,1.3-3.6,1.3-4.9-0.1
							c-1.1-1.1-1.6-1.9-2.3-2.9c-0.6-0.9-1.3-1.8-1.8-2.7c-1.1-1.8-2.2-3.7-3.2-5.7c-1.9-3.9-3.5-7.9-4.6-12.2
							c-0.6-2.1-0.9-4.3-1.2-6.6c-0.1-1.1-0.1-2.3-0.2-3.4c0-1.1-0.1-2.2,0-3.3c0.1-4.4,0.6-8.7,1.4-13c1.7-8.5,4.8-16.8,9.3-24.4
							c4.5-7.6,10.4-14.7,18.6-19.7c2.9-1.8,6.6-0.9,8.4,2s0.9,6.6-2,8.4C1428.8,629.9,1428.6,629.9,1428.5,630z"/>
					</g>
				</g>
			</g>
		</g>
	</g>
	<g>
		<g>
			<g>
				<g>
					<g>
						<path class="st3" d="M1331.7,1159.7c-2.1-23.4-3.4-46.9-3.8-70.4c-0.3-23.5-0.6-47,1-70.7c0.7-11.8,2-23.7,3.5-35.3
							c1.5-11.7,3.1-23.4,5.4-35.2c1.1-5.9,2.4-11.8,4.2-17.9c0.4-1.5,1-3.2,1.6-4.6l1.5-4.2c1-2.8,2.1-5.6,3.2-8.3
							c2.2-5.6,4.6-11.2,7.4-16.8s6.3-11.2,10.3-16.3l0,0c3.1-4,8.9-4.6,12.9-1.5s4.6,8.9,1.5,12.9c-0.1,0.1-0.2,0.2-0.2,0.3
							c-3.4,3.9-6.3,8.2-8.9,13c-2.6,4.7-5,9.8-7.4,15c-1.2,2.6-2.3,5.3-3.4,7.9l-1.7,4c-0.5,1.3-1,2.4-1.4,3.7
							c-1.7,5-3.1,10.6-4.4,16.1c-2.5,11.1-4.6,22.6-6.5,34c-1.9,11.5-3.5,22.9-4.7,34.4c-2.4,22.9-2.9,46.3-3.4,69.6
							c-0.4,23.3,0.1,46.6,1.3,69.9c0.1,2.2-1.6,4.1-3.8,4.3C1333.8,1163.5,1331.9,1161.8,1331.7,1159.7z"/>
					</g>
				</g>
			</g>
		</g>
	</g>
	<g>
		<g>
			<g>
				<g>
					<g>
						<path class="st3" d="M1439.6,611.9c9.5-6.5,19.7-11.5,30.5-15.3c10.8-3.6,22.3-5.8,34-5.8c11.6,0,23.3,2.2,34.2,6.9
							c10.8,4.6,20.7,11.1,29.2,19.1c4.3,4.1,8.2,8.3,11.8,12.9c3.6,4.6,6.9,9.6,9.6,14.9c5.4,10.6,8.8,22.5,9.2,34.5
							c0,1.5,0.1,3,0.1,4.5l-0.2,4.5c0,1.5-0.2,3-0.4,4.5c-0.2,1.5-0.3,3-0.6,4.5c-1,6-2.7,11.8-4.9,17.4
							c-4.4,11.2-10.8,21.4-19,30.4c-3,3.3-8.2,3.6-11.5,0.6s-3.6-8.2-0.6-11.5c0.1-0.1,0.1-0.1,0.2-0.2l0.1-0.1
							c13.9-14.3,23.2-34.1,22.8-54.2c0-10-2.4-20-6.8-29.3c-4.3-9.2-10.6-17.7-18-25.1c-7.3-7.3-16-13.4-25.4-17.8
							c-9.3-4.3-19.7-6.7-30.1-7.1c-20.9-0.7-42.3,6.1-60.3,17.5l-0.1,0.1c-1.7,1-3.8,0.6-4.9-1.1
							C1437.6,615.1,1438.1,613,1439.6,611.9z"/>
					</g>
				</g>
			</g>
		</g>
	</g>
	<g>
		<g>
			<g>
				<g>
					<g>
						<polyline class="st3" points="1436.9,752.3 1442.6,758 1454,758 						"/>
					</g>
				</g>
			</g>
		</g>
		<g>
			<g>
				<defs>
					<path id="SVGID_1_" d="M1454,759h-11.4c-0.3,0-0.5-0.1-0.7-0.3l-5.7-5.7c-0.4-0.4-0.4-1,0-1.4s1-0.4,1.4,0l5.4,5.4h11
						c0.6,0,1,0.4,1,1S1454.6,759,1454,759z"/>
				</defs>
				<use xlink:href="#SVGID_1_"  style="overflow:visible;fill:#DCC289;"/>
				<clipPath id="SVGID_2_">
					<use xlink:href="#SVGID_1_"  style="overflow:visible;"/>
				</clipPath>
				<g class="st4">
					<g>
						<g>
							<rect x="1435.8" y="751.2" class="st3" width="0.1" height="7.8"/>
						</g>
					</g>
				</g>
				<g class="st4">
					<g>
						<g>
							<rect x="1435.9" y="751.2" class="st3" width="0.1" height="7.8"/>
						</g>
					</g>
				</g>
				<g class="st4">
					<g>
						<g>
							<rect x="1436" y="751.2" class="st3" width="0.1" height="7.8"/>
						</g>
					</g>
				</g>
				<g class="st4">
					<g>
						<g>
							<rect x="1436.1" y="751.2" class="st3" width="0.1" height="7.8"/>
						</g>
					</g>
				</g>
				<g class="st4">
					<g>
						<g>
							<rect x="1436.2" y="751.2" class="st3" width="0.1" height="7.8"/>
						</g>
					</g>
				</g>
				<g class="st4">
					<g>
						<g>
							<rect x="1436.3" y="751.2" class="st3" width="0.1" height="7.8"/>
						</g>
					</g>
				</g>
				<g class="st4">
					<g>
						<g>
							<rect x="1436.4" y="751.2" class="st3" width="0.1" height="7.8"/>
						</g>
					</g>
				</g>
				<g class="st4">
					<g>
						<g>
							<rect x="1436.5" y="751.2" class="st3" width="0.1" height="7.8"/>
						</g>
					</g>
				</g>
				<g class="st4">
					<g>
						<g>
							<rect x="1436.7" y="751.2" class="st3" width="0.1" height="7.8"/>
						</g>
					</g>
				</g>
				<g class="st4">
					<g>
						<g>
							<rect x="1436.8" y="751.2" class="st3" width="0.1" height="7.8"/>
						</g>
					</g>
				</g>
				<g class="st4">
					<g>
						<g>
							<rect x="1436.9" y="751.2" class="st3" width="0.1" height="7.8"/>
						</g>
					</g>
				</g>
				<g class="st4">
					<g>
						<g>
							<rect x="1437" y="751.2" class="st3" width="0.1" height="7.8"/>
						</g>
					</g>
				</g>
				<g class="st4">
					<g>
						<g>
							<rect x="1437.1" y="751.2" class="st3" width="0.1" height="7.8"/>
						</g>
					</g>
				</g>
				<g class="st4">
					<g>
						<g>
							<rect x="1437.2" y="751.2" class="st3" width="0.1" height="7.8"/>
						</g>
					</g>
				</g>
				<g class="st4">
					<g>
						<g>
							<rect x="1437.3" y="751.2" class="st3" width="0.1" height="7.8"/>
						</g>
					</g>
				</g>
				<g class="st4">
					<g>
						<g>
							<rect x="1437.4" y="751.2" class="st3" width="0.1" height="7.8"/>
						</g>
					</g>
				</g>
				<g class="st4">
					<g>
						<g>
							<rect x="1437.5" y="751.2" class="st3" width="0.1" height="7.8"/>
						</g>
					</g>
				</g>
				<g class="st4">
					<g>
						<g>
							<rect x="1437.6" y="751.2" class="st3" width="0.1" height="7.8"/>
						</g>
					</g>
				</g>
				<g class="st4">
					<g>
						<g>
							<rect x="1437.7" y="751.2" class="st3" width="0.1" height="7.8"/>
						</g>
					</g>
				</g>
				<g class="st4">
					<g>
						<g>
							<rect x="1437.8" y="751.2" class="st3" width="0.1" height="7.8"/>
						</g>
					</g>
				</g>
				<g class="st4">
					<g>
						<g>
							<rect x="1438" y="751.2" class="st3" width="0.1" height="7.8"/>
						</g>
					</g>
				</g>
				<g class="st4">
					<g>
						<g>
							<rect x="1438.1" y="751.2" class="st3" width="0.1" height="7.8"/>
						</g>
					</g>
				</g>
				<g class="st4">
					<g>
						<g>
							<rect x="1438.2" y="751.2" class="st3" width="0.1" height="7.8"/>
						</g>
					</g>
				</g>
				<g class="st4">
					<g>
						<g>
							<rect x="1438.3" y="751.2" class="st3" width="0.1" height="7.8"/>
						</g>
					</g>
				</g>
				<g class="st4">
					<g>
						<g>
							<rect x="1438.4" y="751.2" class="st3" width="0.1" height="7.8"/>
						</g>
					</g>
				</g>
				<g class="st4">
					<g>
						<g>
							<rect x="1438.5" y="751.2" class="st3" width="0.1" height="7.8"/>
						</g>
					</g>
				</g>
				<g class="st4">
					<g>
						<g>
							<rect x="1438.6" y="751.2" class="st3" width="0.1" height="7.8"/>
						</g>
					</g>
				</g>
				<g class="st4">
					<g>
						<g>
							<rect x="1438.7" y="751.2" class="st3" width="0.1" height="7.8"/>
						</g>
					</g>
				</g>
				<g class="st4">
					<g>
						<g>
							<rect x="1438.8" y="751.2" class="st3" width="0.1" height="7.8"/>
						</g>
					</g>
				</g>
				<g class="st4">
					<g>
						<g>
							<rect x="1438.9" y="751.2" class="st3" width="0.1" height="7.8"/>
						</g>
					</g>
				</g>
				<g class="st4">
					<g>
						<g>
							<rect x="1439" y="751.2" class="st3" width="0.1" height="7.8"/>
						</g>
					</g>
				</g>
				<g class="st4">
					<g>
						<g>
							<rect x="1439.1" y="751.2" class="st3" width="0.1" height="7.8"/>
						</g>
					</g>
				</g>
				<g class="st4">
					<g>
						<g>
							<rect x="1439.3" y="751.2" class="st3" width="0.1" height="7.8"/>
						</g>
					</g>
				</g>
				<g class="st4">
					<g>
						<g>
							<rect x="1439.4" y="751.2" class="st3" width="0.1" height="7.8"/>
						</g>
					</g>
				</g>
				<g class="st4">
					<g>
						<g>
							<rect x="1439.5" y="751.2" class="st3" width="0.1" height="7.8"/>
						</g>
					</g>
				</g>
				<g class="st4">
					<g>
						<g>
							<rect x="1439.6" y="751.2" class="st3" width="0.1" height="7.8"/>
						</g>
					</g>
				</g>
				<g class="st4">
					<g>
						<g>
							<rect x="1439.7" y="751.2" class="st3" width="0.1" height="7.8"/>
						</g>
					</g>
				</g>
				<g class="st4">
					<g>
						<g>
							<rect x="1439.8" y="751.2" class="st3" width="0.1" height="7.8"/>
						</g>
					</g>
				</g>
				<g class="st4">
					<g>
						<g>
							<rect x="1439.9" y="751.2" class="st3" width="0.1" height="7.8"/>
						</g>
					</g>
				</g>
				<g class="st4">
					<g>
						<g>
							<rect x="1440" y="751.2" class="st3" width="0.1" height="7.8"/>
						</g>
					</g>
				</g>
				<g class="st4">
					<g>
						<g>
							<rect x="1440.1" y="751.2" class="st3" width="0.1" height="7.8"/>
						</g>
					</g>
				</g>
				<g class="st4">
					<g>
						<g>
							<rect x="1440.2" y="751.2" class="st3" width="0.1" height="7.8"/>
						</g>
					</g>
				</g>
				<g class="st4">
					<g>
						<g>
							<rect x="1440.3" y="751.2" class="st3" width="0.1" height="7.8"/>
						</g>
					</g>
				</g>
				<g class="st4">
					<g>
						<g>
							<rect x="1440.4" y="751.2" class="st3" width="0.1" height="7.8"/>
						</g>
					</g>
				</g>
				<g class="st4">
					<g>
						<g>
							<rect x="1440.6" y="751.2" class="st3" width="0.1" height="7.8"/>
						</g>
					</g>
				</g>
				<g class="st4">
					<g>
						<g>
							<rect x="1440.7" y="751.2" class="st3" width="0.1" height="7.8"/>
						</g>
					</g>
				</g>
				<g class="st4">
					<g>
						<g>
							<rect x="1440.8" y="751.2" class="st3" width="0.1" height="7.8"/>
						</g>
					</g>
				</g>
				<g class="st4">
					<g>
						<g>
							<rect x="1440.9" y="751.2" class="st3" width="0.1" height="7.8"/>
						</g>
					</g>
				</g>
				<g class="st4">
					<g>
						<g>
							<rect x="1441" y="751.2" class="st3" width="0.1" height="7.8"/>
						</g>
					</g>
				</g>
				<g class="st4">
					<g>
						<g>
							<rect x="1441.1" y="751.2" class="st3" width="0.1" height="7.8"/>
						</g>
					</g>
				</g>
				<g class="st4">
					<g>
						<g>
							<rect x="1441.2" y="751.2" class="st3" width="0.1" height="7.8"/>
						</g>
					</g>
				</g>
				<g class="st4">
					<g>
						<g>
							<rect x="1441.3" y="751.2" class="st3" width="0.1" height="7.8"/>
						</g>
					</g>
				</g>
				<g class="st4">
					<g>
						<g>
							<rect x="1441.4" y="751.2" class="st3" width="0.1" height="7.8"/>
						</g>
					</g>
				</g>
				<g class="st4">
					<g>
						<g>
							<rect x="1441.5" y="751.2" class="st3" width="0.1" height="7.8"/>
						</g>
					</g>
				</g>
				<g class="st4">
					<g>
						<g>
							<rect x="1441.6" y="751.2" class="st3" width="0.1" height="7.8"/>
						</g>
					</g>
				</g>
				<g class="st4">
					<g>
						<g>
							<rect x="1441.7" y="751.2" class="st3" width="0.1" height="7.8"/>
						</g>
					</g>
				</g>
				<g class="st4">
					<g>
						<g>
							<rect x="1441.9" y="751.2" class="st3" width="0.1" height="7.8"/>
						</g>
					</g>
				</g>
				<g class="st4">
					<g>
						<g>
							<rect x="1442" y="751.2" class="st3" width="0.1" height="7.8"/>
						</g>
					</g>
				</g>
				<g class="st4">
					<g>
						<g>
							<rect x="1442.1" y="751.2" class="st3" width="0.1" height="7.8"/>
						</g>
					</g>
				</g>
				<g class="st4">
					<g>
						<g>
							<rect x="1442.2" y="751.2" class="st3" width="0.1" height="7.8"/>
						</g>
					</g>
				</g>
				<g class="st4">
					<g>
						<g>
							<rect x="1442.3" y="751.2" class="st3" width="0.1" height="7.8"/>
						</g>
					</g>
				</g>
				<g class="st4">
					<g>
						<g>
							<rect x="1442.4" y="751.2" class="st3" width="0.1" height="7.8"/>
						</g>
					</g>
				</g>
				<g class="st4">
					<g>
						<g>
							<rect x="1442.5" y="751.2" class="st3" width="0.1" height="7.8"/>
						</g>
					</g>
				</g>
				<g class="st4">
					<g>
						<g>
							<rect x="1442.6" y="751.2" class="st3" width="0.1" height="7.8"/>
						</g>
					</g>
				</g>
				<g class="st4">
					<g>
						<g>
							<rect x="1442.7" y="751.2" class="st3" width="0.1" height="7.8"/>
						</g>
					</g>
				</g>
				<g class="st4">
					<g>
						<g>
							<rect x="1442.8" y="751.2" class="st3" width="0.1" height="7.8"/>
						</g>
					</g>
				</g>
				<g class="st4">
					<g>
						<g>
							<rect x="1442.9" y="751.2" class="st3" width="0.1" height="7.8"/>
						</g>
					</g>
				</g>
				<g class="st4">
					<g>
						<g>
							<rect x="1443" y="751.2" class="st3" width="0.4" height="7.8"/>
						</g>
					</g>
				</g>
				<g class="st4">
					<g>
						<g>
							<rect x="1443.4" y="751.2" class="st3" width="0.4" height="7.8"/>
						</g>
					</g>
				</g>
				<g class="st4">
					<g>
						<g>
							<rect x="1443.8" y="751.2" class="st3" width="0.4" height="7.8"/>
						</g>
					</g>
				</g>
				<g class="st4">
					<g>
						<g>
							<rect x="1444.1" y="751.2" class="st3" width="0.4" height="7.8"/>
						</g>
					</g>
				</g>
				<g class="st4">
					<g>
						<g>
							<rect x="1444.5" y="751.2" class="st3" width="0.1" height="7.8"/>
						</g>
					</g>
				</g>
				<g class="st4">
					<g>
						<g>
							<rect x="1444.6" y="751.2" class="st3" width="0.1" height="7.8"/>
						</g>
					</g>
				</g>
				<g class="st4">
					<g>
						<g>
							<rect x="1444.7" y="751.2" class="st3" width="0.1" height="7.8"/>
						</g>
					</g>
				</g>
				<g class="st4">
					<g>
						<g>
							<rect x="1444.8" y="751.2" class="st3" width="0.1" height="7.8"/>
						</g>
					</g>
				</g>
				<g class="st4">
					<g>
						<g>
							<rect x="1444.9" y="751.2" class="st3" width="0.1" height="7.8"/>
						</g>
					</g>
				</g>
				<g class="st4">
					<g>
						<g>
							<rect x="1445" y="751.2" class="st3" width="0.1" height="7.8"/>
						</g>
					</g>
				</g>
				<g class="st4">
					<g>
						<g>
							<rect x="1445.1" y="751.2" class="st3" width="0.1" height="7.8"/>
						</g>
					</g>
				</g>
				<g class="st4">
					<g>
						<g>
							<rect x="1445.3" y="751.2" class="st3" width="0.1" height="7.8"/>
						</g>
					</g>
				</g>
				<g class="st4">
					<g>
						<g>
							<rect x="1445.4" y="751.2" class="st3" width="0.1" height="7.8"/>
						</g>
					</g>
				</g>
				<g class="st4">
					<g>
						<g>
							<rect x="1445.5" y="751.2" class="st3" width="0.1" height="7.8"/>
						</g>
					</g>
				</g>
				<g class="st4">
					<g>
						<g>
							<rect x="1445.6" y="751.2" class="st3" width="0.1" height="7.8"/>
						</g>
					</g>
				</g>
				<g class="st4">
					<g>
						<g>
							<rect x="1445.7" y="751.2" class="st3" width="0.1" height="7.8"/>
						</g>
					</g>
				</g>
				<g class="st4">
					<g>
						<g>
							<rect x="1445.8" y="751.2" class="st3" width="0.1" height="7.8"/>
						</g>
					</g>
				</g>
				<g class="st4">
					<g>
						<g>
							<rect x="1445.9" y="751.2" class="st3" width="0.1" height="7.8"/>
						</g>
					</g>
				</g>
				<g class="st4">
					<g>
						<g>
							<rect x="1446.1" y="751.2" class="st3" width="0.1" height="7.8"/>
						</g>
					</g>
				</g>
				<g class="st4">
					<g>
						<g>
							<rect x="1446.1" y="751.2" class="st3" width="0.1" height="7.8"/>
						</g>
					</g>
				</g>
				<g class="st4">
					<g>
						<g>
							<rect x="1446.2" y="751.2" class="st3" width="0.1" height="7.8"/>
						</g>
					</g>
				</g>
				<g class="st4">
					<g>
						<g>
							<rect x="1446.3" y="751.2" class="st3" width="0.1" height="7.8"/>
						</g>
					</g>
				</g>
				<g class="st4">
					<g>
						<g>
							<rect x="1446.3" y="751.2" class="st3" width="0.1" height="7.8"/>
						</g>
					</g>
				</g>
				<g class="st4">
					<g>
						<g>
							<rect x="1446.4" y="751.2" class="st3" width="0.1" height="7.8"/>
						</g>
					</g>
				</g>
				<g class="st4">
					<g>
						<g>
							<rect x="1446.5" y="751.2" class="st3" width="0.1" height="7.8"/>
						</g>
					</g>
				</g>
				<g class="st4">
					<g>
						<g>
							<rect x="1446.6" y="751.2" class="st3" width="0.1" height="7.8"/>
						</g>
					</g>
				</g>
				<g class="st4">
					<g>
						<g>
							<rect x="1446.6" y="751.2" class="st3" width="0.1" height="7.8"/>
						</g>
					</g>
				</g>
				<g class="st4">
					<g>
						<g>
							<rect x="1446.7" y="751.2" class="st3" width="0.1" height="7.8"/>
						</g>
					</g>
				</g>
				<g class="st4">
					<g>
						<g>
							<rect x="1446.8" y="751.2" class="st3" width="0.1" height="7.8"/>
						</g>
					</g>
				</g>
				<g class="st4">
					<g>
						<g>
							<rect x="1446.9" y="751.2" class="st3" width="0.1" height="7.8"/>
						</g>
					</g>
				</g>
				<g class="st4">
					<g>
						<g>
							<rect x="1446.9" y="751.2" class="st3" width="0.1" height="7.8"/>
						</g>
					</g>
				</g>
				<g class="st4">
					<g>
						<g>
							<rect x="1447" y="751.2" class="st3" width="0.1" height="7.8"/>
						</g>
					</g>
				</g>
				<g class="st4">
					<g>
						<g>
							<rect x="1447.1" y="751.2" class="st3" width="0.1" height="7.8"/>
						</g>
					</g>
				</g>
				<g class="st4">
					<g>
						<g>
							<rect x="1447.2" y="751.2" class="st3" width="0.1" height="7.8"/>
						</g>
					</g>
				</g>
				<g class="st4">
					<g>
						<g>
							<rect x="1447.2" y="751.2" class="st3" width="0.1" height="7.8"/>
						</g>
					</g>
				</g>
				<g class="st4">
					<g>
						<g>
							<rect x="1447.3" y="751.2" class="st3" width="0.1" height="7.8"/>
						</g>
					</g>
				</g>
				<g class="st4">
					<g>
						<g>
							<rect x="1447.4" y="751.2" class="st3" width="0.1" height="7.8"/>
						</g>
					</g>
				</g>
				<g class="st4">
					<g>
						<g>
							<rect x="1447.5" y="751.2" class="st3" width="0.1" height="7.8"/>
						</g>
					</g>
				</g>
				<g class="st4">
					<g>
						<g>
							<rect x="1447.5" y="751.2" class="st3" width="0.1" height="7.8"/>
						</g>
					</g>
				</g>
				<g class="st4">
					<g>
						<g>
							<rect x="1447.6" y="751.2" class="st3" width="0.1" height="7.8"/>
						</g>
					</g>
				</g>
				<g class="st4">
					<g>
						<g>
							<rect x="1447.7" y="751.2" class="st3" width="0.1" height="7.8"/>
						</g>
					</g>
				</g>
				<g class="st4">
					<g>
						<g>
							<rect x="1447.8" y="751.2" class="st3" width="0.1" height="7.8"/>
						</g>
					</g>
				</g>
				<g class="st4">
					<g>
						<g>
							<rect x="1447.8" y="751.2" class="st3" width="0.1" height="7.8"/>
						</g>
					</g>
				</g>
				<g class="st4">
					<g>
						<g>
							<rect x="1447.9" y="751.2" class="st3" width="0.1" height="7.8"/>
						</g>
					</g>
				</g>
				<g class="st4">
					<g>
						<g>
							<rect x="1447.9" y="751.2" class="st3" width="0.1" height="7.8"/>
						</g>
					</g>
				</g>
				<g class="st4">
					<g>
						<g>
							<rect x="1448" y="751.2" class="st3" width="0.1" height="7.8"/>
						</g>
					</g>
				</g>
				<g class="st4">
					<g>
						<g>
							<rect x="1448" y="751.2" class="st3" width="0.1" height="7.8"/>
						</g>
					</g>
				</g>
				<g class="st4">
					<g>
						<g>
							<rect x="1448.1" y="751.2" class="st3" width="0.1" height="7.8"/>
						</g>
					</g>
				</g>
				<g class="st4">
					<g>
						<g>
							<rect x="1448.2" y="751.2" class="st3" width="0.1" height="7.8"/>
						</g>
					</g>
				</g>
				<g class="st4">
					<g>
						<g>
							<rect x="1448.2" y="751.2" class="st3" width="0.1" height="7.8"/>
						</g>
					</g>
				</g>
				<g class="st4">
					<g>
						<g>
							<rect x="1448.3" y="751.2" class="st3" width="0.1" height="7.8"/>
						</g>
					</g>
				</g>
				<g class="st4">
					<g>
						<g>
							<rect x="1448.3" y="751.2" class="st3" width="0.1" height="7.8"/>
						</g>
					</g>
				</g>
				<g class="st4">
					<g>
						<g>
							<rect x="1448.4" y="751.2" class="st3" width="0.1" height="7.8"/>
						</g>
					</g>
				</g>
				<g class="st4">
					<g>
						<g>
							<rect x="1448.5" y="751.2" class="st3" width="0.1" height="7.8"/>
						</g>
					</g>
				</g>
				<g class="st4">
					<g>
						<g>
							<rect x="1448.5" y="751.2" class="st3" width="0.1" height="7.8"/>
						</g>
					</g>
				</g>
				<g class="st4">
					<g>
						<g>
							<rect x="1448.6" y="751.2" class="st3" width="0.1" height="7.8"/>
						</g>
					</g>
				</g>
				<g class="st4">
					<g>
						<g>
							<rect x="1448.6" y="751.2" class="st3" width="0.1" height="7.8"/>
						</g>
					</g>
				</g>
				<g class="st4">
					<g>
						<g>
							<rect x="1448.7" y="751.2" class="st3" width="0.1" height="7.8"/>
						</g>
					</g>
				</g>
				<g class="st4">
					<g>
						<g>
							<rect x="1448.8" y="751.2" class="st3" width="0.1" height="7.8"/>
						</g>
					</g>
				</g>
				<g class="st4">
					<g>
						<g>
							<rect x="1448.9" y="751.2" class="st3" width="0.1" height="7.8"/>
						</g>
					</g>
				</g>
				<g class="st4">
					<g>
						<g>
							<rect x="1449" y="751.2" class="st3" width="0.1" height="7.8"/>
						</g>
					</g>
				</g>
				<g class="st4">
					<g>
						<g>
							<rect x="1449.2" y="751.2" class="st3" width="0.1" height="7.8"/>
						</g>
					</g>
				</g>
				<g class="st4">
					<g>
						<g>
							<rect x="1449.3" y="751.2" class="st3" width="0.1" height="7.8"/>
						</g>
					</g>
				</g>
				<g class="st4">
					<g>
						<g>
							<rect x="1449.4" y="751.2" class="st3" width="0.1" height="7.8"/>
						</g>
					</g>
				</g>
				<g class="st4">
					<g>
						<g>
							<rect x="1449.6" y="751.2" class="st3" width="0.1" height="7.8"/>
						</g>
					</g>
				</g>
				<g class="st4">
					<g>
						<g>
							<rect x="1449.7" y="751.2" class="st3" width="0.1" height="7.8"/>
						</g>
					</g>
				</g>
				<g class="st4">
					<g>
						<g>
							<rect x="1449.9" y="751.2" class="st3" width="0.1" height="7.8"/>
						</g>
					</g>
				</g>
				<g class="st4">
					<g>
						<g>
							<rect x="1450" y="751.2" class="st3" width="0.1" height="7.8"/>
						</g>
					</g>
				</g>
				<g class="st4">
					<g>
						<g>
							<rect x="1450.1" y="751.2" class="st3" width="0.1" height="7.8"/>
						</g>
					</g>
				</g>
				<g class="st4">
					<g>
						<g>
							<rect x="1450.3" y="751.2" class="st3" width="0.1" height="7.8"/>
						</g>
					</g>
				</g>
				<g class="st4">
					<g>
						<g>
							<rect x="1450.4" y="751.2" class="st3" width="0.1" height="7.8"/>
						</g>
					</g>
				</g>
				<g class="st4">
					<g>
						<g>
							<rect x="1450.6" y="751.2" class="st3" width="0.1" height="7.8"/>
						</g>
					</g>
				</g>
				<g class="st4">
					<g>
						<g>
							<rect x="1450.7" y="751.2" class="st3" width="0.1" height="7.8"/>
						</g>
					</g>
				</g>
				<g class="st4">
					<g>
						<g>
							<rect x="1450.8" y="751.2" class="st3" width="0.1" height="7.8"/>
						</g>
					</g>
				</g>
				<g class="st4">
					<g>
						<g>
							<rect x="1451" y="751.2" class="st3" width="0.1" height="7.8"/>
						</g>
					</g>
				</g>
				<g class="st4">
					<g>
						<g>
							<rect x="1451.1" y="751.2" class="st3" width="0.1" height="7.8"/>
						</g>
					</g>
				</g>
				<g class="st4">
					<g>
						<g>
							<rect x="1451.2" y="751.2" class="st3" width="0.1" height="7.8"/>
						</g>
					</g>
				</g>
				<g class="st4">
					<g>
						<g>
							<rect x="1451.3" y="751.2" class="st3" width="0.1" height="7.8"/>
						</g>
					</g>
				</g>
				<g class="st4">
					<g>
						<g>
							<rect x="1451.4" y="751.2" class="st3" width="0.1" height="7.8"/>
						</g>
					</g>
				</g>
				<g class="st4">
					<g>
						<g>
							<rect x="1451.6" y="751.2" class="st3" width="0.1" height="7.8"/>
						</g>
					</g>
				</g>
				<g class="st4">
					<g>
						<g>
							<rect x="1451.7" y="751.2" class="st3" width="0.1" height="7.8"/>
						</g>
					</g>
				</g>
				<g class="st4">
					<g>
						<g>
							<rect x="1451.8" y="751.2" class="st3" width="0.1" height="7.8"/>
						</g>
					</g>
				</g>
				<g class="st4">
					<g>
						<g>
							<rect x="1451.9" y="751.2" class="st3" width="0.1" height="7.8"/>
						</g>
					</g>
				</g>
				<g class="st4">
					<g>
						<g>
							<rect x="1452" y="751.2" class="st3" width="0.1" height="7.8"/>
						</g>
					</g>
				</g>
				<g class="st4">
					<g>
						<g>
							<rect x="1452.1" y="751.2" class="st3" width="0.1" height="7.8"/>
						</g>
					</g>
				</g>
				<g class="st4">
					<g>
						<g>
							<rect x="1452.2" y="751.2" class="st3" width="0.1" height="7.8"/>
						</g>
					</g>
				</g>
				<g class="st4">
					<g>
						<g>
							<rect x="1452.3" y="751.2" class="st3" width="0.1" height="7.8"/>
						</g>
					</g>
				</g>
				<g class="st4">
					<g>
						<g>
							<rect x="1452.4" y="751.2" class="st3" width="0.1" height="7.8"/>
						</g>
					</g>
				</g>
				<g class="st4">
					<g>
						<g>
							<rect x="1452.5" y="751.2" class="st3" width="0.1" height="7.8"/>
						</g>
					</g>
				</g>
				<g class="st4">
					<g>
						<g>
							<rect x="1452.6" y="751.2" class="st3" width="0.1" height="7.8"/>
						</g>
					</g>
				</g>
				<g class="st4">
					<g>
						<g>
							<rect x="1452.8" y="751.2" class="st3" width="0.1" height="7.8"/>
						</g>
					</g>
				</g>
				<g class="st4">
					<g>
						<g>
							<rect x="1452.9" y="751.2" class="st3" width="0.1" height="7.8"/>
						</g>
					</g>
				</g>
				<g class="st4">
					<g>
						<g>
							<rect x="1453" y="751.2" class="st3" width="0.1" height="7.8"/>
						</g>
					</g>
				</g>
				<g class="st4">
					<g>
						<g>
							<rect x="1453.1" y="751.2" class="st3" width="0.1" height="7.8"/>
						</g>
					</g>
				</g>
				<g class="st4">
					<g>
						<g>
							<rect x="1453.2" y="751.2" class="st3" width="0.1" height="7.8"/>
						</g>
					</g>
				</g>
				<g class="st4">
					<g>
						<g>
							<rect x="1453.3" y="751.2" class="st3" width="0.1" height="7.8"/>
						</g>
					</g>
				</g>
				<g class="st4">
					<g>
						<g>
							<rect x="1453.4" y="751.2" class="st3" width="0.1" height="7.8"/>
						</g>
					</g>
				</g>
				<g class="st4">
					<g>
						<g>
							<rect x="1453.5" y="751.2" class="st3" width="0.1" height="7.8"/>
						</g>
					</g>
				</g>
				<g class="st4">
					<g>
						<g>
							<rect x="1453.6" y="751.2" class="st3" width="0.1" height="7.8"/>
						</g>
					</g>
				</g>
				<g class="st4">
					<g>
						<g>
							<rect x="1453.7" y="751.2" class="st3" width="1.3" height="7.8"/>
						</g>
					</g>
				</g>
			</g>
		</g>
	</g>
	<g>
		<g>
			<g>
				<g>
					<g>
						<path class="st3" d="M1457.8,694.6c3.2-1.5,6.7-2.5,10.2-2.9s7.2-0.3,10.6,0.1c3.4,0.4,6.8,1,10.1,1.9
							c3.3,0.9,6.5,1.9,9.6,3.5c0.8,0.4,1.1,1.4,0.7,2.2c-0.3,0.7-1.1,1-1.8,0.9h-0.1c-3-0.6-6.2-1-9.4-1.2
							c-3.2-0.2-6.3-0.3-9.4-0.2c-6.2,0.2-11.8,1.8-17.6,3.4h-0.1c-2.2,0.6-4.4-0.7-5-2.8C1455.1,697.5,1456,695.5,1457.8,694.6z"/>
					</g>
				</g>
			</g>
		</g>
	</g>
	<g>
		<g>
			<g>
				<g>
					<g>
						<path class="st3" d="M1430.2,705.2c-2.9-1.6-6-2.4-9.2-2.2s-6.5,1.4-9.5,3.5l0,0c-0.9,0.6-2.2,0.4-2.8-0.5
							c-0.6-0.8-0.4-1.9,0.2-2.6c2.9-2.9,6.7-5.3,11.1-6.4c4.4-1.1,9.1-0.7,13.3,0.7l0.2,0.1c2.1,0.7,3.3,3,2.6,5.2
							c-0.7,2.1-3,3.3-5.2,2.6C1430.6,705.4,1430.4,705.3,1430.2,705.2z"/>
					</g>
				</g>
			</g>
		</g>
	</g>
	<g>
		<g>
			<g>
				<g>
					<g>
						<path class="st3" d="M1402.5,982.2c-2.7,20.8-4.7,43.5-5.6,67.9c-0.9,23.3-0.7,36.1,0.2,56.3"/>
					</g>
				</g>
			</g>
		</g>
		<g>
			<g>
				<g>
					<g>
						<path class="st3" d="M1397.1,1109.4c-1.6,0-2.9-1.3-3-2.9c-0.9-19.8-1.1-32.7-0.2-56.5c0.8-23,2.7-46,5.6-68.2
							c0.2-1.6,1.7-2.8,3.4-2.6c1.6,0.2,2.8,1.7,2.6,3.4c-2.9,22-4.7,44.8-5.6,67.6c-0.9,23.6-0.7,36.4,0.2,56.1
							c0.1,1.7-1.2,3.1-2.9,3.1C1397.2,1109.4,1397.1,1109.4,1397.1,1109.4z"/>
					</g>
				</g>
			</g>
		</g>
	</g>
	<g>
		<g>
			<g>
				<g>
					<g>
						<path class="st3" d="M1468.3,1177.7c7.7-8.4,16.1-16.3,25.2-23.3c4.5-3.5,9.3-6.8,14.1-10c4.9-3.1,9.8-6.1,15-8.7
							c20.5-10.8,43.2-17.7,66.5-20.4l0,0c3.9-0.5,7.4,2.3,7.9,6.3c0.5,3.9-2.3,7.4-6.3,7.9c-0.2,0-0.4,0-0.5,0
							c-21.7,0.9-43.5,5.7-63.7,14.5c-5.1,2.1-10,4.6-14.9,7.2c-4.8,2.7-9.6,5.5-14.2,8.6c-9.3,6.2-18,13.1-26.2,20.8
							c-0.8,0.8-2.1,0.7-2.9-0.1C1467.6,1179.7,1467.6,1178.5,1468.3,1177.7z"/>
					</g>
				</g>
			</g>
		</g>
	</g>
	<g>
		<g>
			<g>
				<g>
					<g>
						<path class="st3" d="M1503.6,1191.1l26.6-10.6l13.3-5.3l13.2-5.5c8.8-3.6,18.1-7.2,28-9.3c9.9-2.1,19.9-3.1,30-3.1l0,0
							c4.5,0,8.1,3.7,8.1,8.2s-3.7,8.1-8.2,8.1c-0.4,0-0.8,0-1.1-0.1c-8.9-1.3-18-1.6-26.9-0.9s-18,2.8-27.2,5.2l-13.8,3.6
							l-13.9,3.5l-27.8,6.9c-0.2,0.1-0.5-0.1-0.5-0.3C1503.3,1191.4,1503.4,1191.2,1503.6,1191.1z"/>
					</g>
				</g>
			</g>
		</g>
	</g>
	<g>
		<g>
			<g>
				<g>
					<g>
						<path class="st3" d="M1633,1221c-25.7-0.7-51.3-1.7-77-3.1l-38.3-2.2c-12.7-0.6-25.5-0.7-38.6-1.7s-26.2-3.3-38.9-6.2
							c-12.8-2.9-25.4-6.5-37.8-11c-3.1-1.1-6.2-2.3-9.3-3.5l-9-3.7c-6-2.4-12.1-5.1-18.1-8c-12-5.9-23.1-12.8-34.1-19.8
							c-4.3-2.7-5.5-8.4-2.8-12.6c2.7-4.3,8.4-5.5,12.6-2.8c0.1,0,0.2,0.1,0.2,0.2h0.1c10.4,7.2,20.9,14.1,31.7,19.9
							c5.4,2.9,11,5.5,16.8,8.1l8.7,3.9c2.8,1.2,5.7,2.4,8.6,3.6c11.6,4.5,23.6,8.4,35.7,11.5c12.2,3.1,24.3,5.6,36.8,6.9
							c12.4,1.4,25.2,1.8,38.1,2.8l38.4,3.2c25.5,2.1,51,3.8,76.6,5.2c2.5,0.1,4.5,2.3,4.3,4.8
							C1637.6,1219.2,1635.5,1221.1,1633,1221z"/>
					</g>
				</g>
			</g>
		</g>
	</g>
	<g>
		<g>
			<g>
				<g>
					<g>
						<path class="st3" d="M1407.3,983c0.3,5.8,0.8,11.5,1.5,17.2l2.2,17.5l1,8.8l1.1,8.7l2.2,17.4c3.1,23.2,7.1,46.3,11.7,69.2
							c0.3,1.6-0.7,3.2-2.3,3.5c-1.6,0.3-3.1-0.7-3.5-2.2c-5.6-22.9-10.5-45.9-14.7-69.2l-5.8-34.8l-3.1-17.3
							c-1-5.9-1.8-11.9-2.5-17.8c-0.4-3.4,2.1-6.4,5.4-6.7c3.4-0.4,6.4,2.1,6.7,5.4C1407.3,982.8,1407.3,982.9,1407.3,983z"/>
					</g>
				</g>
			</g>
		</g>
	</g>
	<g>
		<g>
			<g>
				<g>
					<g>
						<path class="st3" d="M1515,951.1c-9.7,1.8-18.7,5.4-26.7,11.2c-2,1.4-4,3-6.1,4.6l-6.3,4.8c-4,3.1-7.8,6.5-11.7,10.1
							c-7.7,7.2-15.8,14.2-24.3,20.5c-8.5,6.4-17.3,12.3-26.4,17.6c-0.8,0.4-1.7,0.2-2.2-0.6c-0.4-0.7-0.2-1.6,0.5-2.1
							c8.6-5.9,16.9-12.3,24.8-19.1s15.3-14,22.4-21.7c3.6-3.8,7.4-7.7,11.4-11.3c2.1-1.8,3.9-3.4,5.9-5.2c1.9-1.8,3.9-3.6,6.1-5.4
							c4.2-3.5,9-6.8,14.1-9.3c5.1-2.6,10.4-4.5,15.8-6h0.1c3.3-0.9,6.6,1,7.5,4.3s-1,6.6-4.3,7.5
							C1515.3,951.1,1515.2,951.1,1515,951.1z"/>
					</g>
				</g>
			</g>
		</g>
	</g>
	<g>
		<g>
			<g>
				<g>
					<g>
						<path class="st3" d="M1555.8,778.7c-10.3,0-36.5-2.1-52.1-22.4c-11.4-15-12-32.6-12-36c0.1-8.6,2.2-14,4.1-18.8
							c2-5.1,3.7-9.5,2.5-17c-2.3-15.1-13.3-24.6-15.5-26.3c-2.9-2.4-7.7-6.3-15.3-7.7c-4.5-0.8-11.7-1-19.7,3.1
							c-1.2,0.6-2.7,0.1-3.4-1.1c-0.6-1.2-0.1-2.7,1.1-3.4c9.3-4.6,17.6-4.5,22.9-3.5c8.8,1.7,14.5,6.3,17.5,8.7
							c2.4,1.9,14.7,12.5,17.3,29.5c1.4,8.8-0.7,14-2.8,19.6c-1.8,4.6-3.7,9.3-3.7,17c0,3.1,0.5,19.3,11,33
							c17.7,23,50.6,20.4,52,20.3c1.4-0.1,2.6,0.9,2.7,2.3c0.1,1.4-0.9,2.6-2.3,2.7C1559.8,778.6,1558.3,778.7,1555.8,778.7z"/>
					</g>
				</g>
			</g>
		</g>
	</g>
	<g>
		<g>
			<g>
				<g>
					<g>
						<path class="st3" d="M1527.8,792.1c0.3,7.5,1.1,14.7,2.8,21.6c1.6,6.9,4.2,13.4,8.3,17.9c2.3,2.5,4.8,4.6,7.6,6.4
							c2.9,1.8,6.1,3.4,9.4,4.7c6.8,2.7,14.1,5,21.5,7.2c7.3,2.2,14.6,4.1,22.1,5.7c7.5,1.7,15.1,3.2,22.7,5.1
							c15.2,3.8,30,8.9,44.3,14.9c1.3,0.5,1.9,2.1,1.4,3.4c-0.5,1.3-2,1.9-3.2,1.4l0,0c-14.4-5.2-29.2-9.4-44.1-12.3
							c-7.5-1.5-15-2.6-22.7-3.9c-7.7-1.3-15.4-2.9-23-4.7c-7.6-1.9-15.1-3.8-22.8-6.4c-3.8-1.3-7.7-3-11.5-5.1s-7.4-4.9-10.5-7.9
							c-3.3-3.3-5.8-7.2-7.8-11.1c-2-3.9-3.4-7.9-4.5-11.9c-2.3-8-3.5-16.1-4.2-24.1l0,0c-0.4-3.9,2.5-7.4,6.5-7.7
							c3.9-0.4,7.4,2.5,7.7,6.5C1527.8,791.9,1527.8,792,1527.8,792.1z"/>
					</g>
				</g>
			</g>
		</g>
	</g>
	<g>
		<g>
			<g>
				<g>
					<g>
						<path class="st3" d="M1578.4,866.6c-13.6,2.8-26.4,8-37.5,16.4c-2.8,2.1-5.6,4.3-8.4,6.6s-5.9,4.6-8.6,6.8
							c-5.6,4.4-10.8,9.2-16.1,14.2c-5.3,5-10.6,10-16.2,14.8c-5.5,4.8-11.2,9.4-17,13.9c-11.6,8.9-23.7,17.2-36.2,24.8
							c-0.7,0.5-1.7,0.2-2.2-0.5c-0.4-0.7-0.2-1.7,0.5-2.1c12-8.1,23.5-16.9,34.5-26.3c11-9.4,21.3-19.3,31.3-29.9
							c5-5.3,10.2-10.6,15.8-15.5c2.9-2.5,5.5-4.7,8.2-7.2c2.7-2.4,5.5-4.9,8.4-7.3c5.8-4.8,12.3-9.2,19.2-12.6
							c6.9-3.4,14.2-6.1,21.5-8l0,0c3.3-0.9,6.6,1.1,7.5,4.3c0.9,3.3-1.1,6.6-4.3,7.5C1578.6,866.6,1578.5,866.6,1578.4,866.6z"/>
					</g>
				</g>
			</g>
		</g>
	</g>
	<g>
		<g>
			<g>
				<g>
					<g>
						<path class="st3" d="M1510.8,916.1c-10.6,3.1-21,6.6-31.2,10.8c-10.2,4.1-20,8.9-29.2,14.5c-4.6,2.8-8.9,5.9-13,9.2
							c-3.9,3.3-7.9,7.1-11.5,11c-3.7,3.9-7,7.9-10,12.1c-3,4.3-5.7,8.8-8.6,13.7c-2,3.4-6.4,4.5-9.8,2.4c-3.4-2-4.5-6.4-2.4-9.8
							c0.1-0.1,0.1-0.2,0.2-0.3l0,0c3.1-4.5,6.3-9.4,10-14s7.7-8.9,11.9-12.9c4.3-4,8.5-7.6,13.4-11.2c4.8-3.4,9.8-6.4,14.9-9
							c10.2-5.3,20.8-9.4,31.5-12.9s21.6-6.3,32.6-8.7c1.4-0.3,2.8,0.6,3.2,2C1512.9,914.3,1512.1,915.7,1510.8,916.1L1510.8,916.1z
							"/>
					</g>
				</g>
			</g>
		</g>
	</g>
	<g>
		<g>
			<g>
				<g>
					<g>
						<path class="st3" d="M1583.2,916.3c-33.6,17.3-64.6,39.2-91.8,64.8c-1.6,1.5-4.2,1.5-5.8-0.2c-1.5-1.6-1.5-4.2,0.2-5.8
							c0.1-0.1,0.1-0.1,0.2-0.2c29.3-24.5,62-44.7,96.6-60c0.4-0.2,0.8,0,0.9,0.4C1583.7,915.7,1583.5,916.1,1583.2,916.3z"/>
					</g>
				</g>
			</g>
		</g>
	</g>
	<g>
		<g>
			<g>
				<g>
					<g>
						<path class="st3" d="M1592.4,1119.7c-1,0-1.9-0.6-2.3-1.5c-0.5-1.3,0-2.7,1.3-3.3c16.5-7.1,24.3-10.8,37.5-25.8
							c17.7-20.1,23.3-44.3,25-61.2c0.7-7.1,0.8-13.4,0.5-18.7c-4.7,23-13.5,43.6-26.4,61.4c-10.7,14.8-25.6,25.1-31.6,26
							c-1.3,0.2-2.3,0-3.1-0.6c-0.7-0.5-1.1-1.2-1.3-2.1c-0.4-2.2,1.3-4.6,5.4-10.4c7-9.8,20.1-28.2,31-58.5
							c8.4-23.2,6.5-48.6,2.3-63.2c-0.4-1.3,0.4-2.7,1.7-3.1c1.3-0.4,2.7,0.4,3.1,1.7c4.4,15.3,6.4,41.9-2.5,66.2
							c-11.1,31-24.5,49.7-31.6,59.7c-1,1.4-2.1,2.9-2.9,4.1c5.5-2.8,16.6-10.8,25.3-22.9c15-20.7,24.4-45.4,27.8-73.5
							c0.4-2.9,0.4-3.6,1.5-4.3c0.6-0.4,1.3-0.5,1.9-0.4v0c1,0.2,1.6,0.9,2,2c2.3,7,9.5,62.1-24.6,100.9
							c-13.9,15.7-22.5,19.9-39.3,27C1593.1,1119.6,1592.7,1119.7,1592.4,1119.7z"/>
					</g>
				</g>
			</g>
		</g>
	</g>
	<g>
		<g>
			<g>
				<g>
					<g>
						<path class="st3" d="M1596.4,1117.9c4.9,5.8,10.8,11.8,15.7,19c4.9,7.2,8.6,15.2,11.1,23.4c0.6,2.1,1.2,4.1,1.6,6.2l0.7,3
							c0.1,0.7,0.4,1.6,0.6,2.5c1,3.6,2.1,7.4,3.3,11.2c2.3,7.5,4.8,15.1,7.3,22.6c5,15.1,10.2,30.1,15.4,45.1
							c2.6,7.5,5.3,15,8,22.4l0.5,1.3l0.1,0.2c0,0,0,0.1-0.1-0.1l-0.2-0.4c-3.1-0.4,5.2-1.7-7.7-0.9c-3.2,8.3-0.9,2.6-1.6,4.6
							l0.1,0.3c0,0.2,0-0.2-0.1-0.4l-0.9-2.7l-1.9-5.6l-3.8-11.3l0,0c-0.8-2.5,0.5-5.2,3-6c2.4-0.8,5.1,0.4,6,2.8l4.2,11.2l2.1,5.6
							l1,2.9c0.1,0.3,0.2,0.4,0.3,1.1l0.1,0.4c-0.7,2,1.7-3.7-1.6,4.6c-12.9,0.8-4.6-0.6-7.8-1c-0.4-0.7-0.2-0.3-0.3-0.5l-0.2-0.4
							l-0.2-0.5l-0.6-1.5c-3-7.5-5.9-14.9-8.8-22.3c-5.8-14.9-11.4-29.8-17-44.7c-2.8-7.5-5.5-15-8.2-22.6
							c-1.3-3.8-2.6-7.6-3.8-11.6c-0.3-1-0.6-2-0.9-3.3l-0.6-2.8c-0.4-1.8-0.9-3.6-1.4-5.3c-2.1-7-5.2-13.5-9.3-19.5
							c-4.1-6-9.3-11.5-14.8-17.7c-2.6-3-2.3-7.5,0.7-10C1589.2,1114.5,1593.7,1114.8,1596.4,1117.9L1596.4,1117.9L1596.4,1117.9z"
							/>
					</g>
				</g>
			</g>
		</g>
	</g>
	<g>
		<g>
			<g>
				<g>
					<g>
						<path class="st3" d="M1536.1,1239.6c-21,19.6-40.7,40.6-59,62.9c-0.7,0.9-2.1,1-3,0.3s-1-2-0.4-2.9
							c16.8-23.7,35.3-46.3,55.2-67.6c1.9-2.1,5.1-2.2,7.2-0.2s2.2,5.1,0.2,7.2C1536.3,1239.4,1536.2,1239.5,1536.1,1239.6z"/>
					</g>
				</g>
			</g>
		</g>
	</g>
	<g class="st5">
		<g class="st0">
			<g>
				<g>
					<g>
						<g>
							<g>
								<path class="st3" d="M1491,1160.5"/>
							</g>
						</g>
					</g>
				</g>
			</g>
		</g>
		<g>
			<g>
				<g>
					<defs>
						<path id="SVGID_3_" d="M1495.1,1156.4"/>
					</defs>
					<use xlink:href="#SVGID_3_"  style="overflow:visible;fill:#DCC289;"/>
					<clipPath id="SVGID_4_">
						<use xlink:href="#SVGID_3_"  style="overflow:visible;"/>
					</clipPath>
					<g class="st6">
						<g>
							<g>
								<g>
									<path class="st3" d="M1495.1,1156.4L1495.1,1156.4L1495.1,1156.4z"/>
								</g>
							</g>
						</g>
					</g>
					<g class="st6">
						<g>
							<g>
								<g>
									<path class="st3" d="M1495.1,1156.4L1495.1,1156.4L1495.1,1156.4z"/>
								</g>
							</g>
						</g>
					</g>
					<g class="st6">
						<g>
							<g>
								<g>
									<path class="st3" d="M1495.1,1156.4L1495.1,1156.4L1495.1,1156.4z"/>
								</g>
							</g>
						</g>
					</g>
					<g class="st6">
						<g>
							<g>
								<g>
									<path class="st3" d="M1495.1,1156.4L1495.1,1156.4L1495.1,1156.4z"/>
								</g>
							</g>
						</g>
					</g>
					<g class="st6">
						<g>
							<g>
								<g>
									<path class="st3" d="M1495.1,1156.4L1495.1,1156.4L1495.1,1156.4z"/>
								</g>
							</g>
						</g>
					</g>
					<g class="st6">
						<g>
							<g>
								<g>
									<path class="st3" d="M1495.1,1156.4L1495.1,1156.4L1495.1,1156.4z"/>
								</g>
							</g>
						</g>
					</g>
					<g class="st6">
						<g>
							<g>
								<g>
									<path class="st3" d="M1495.1,1156.4L1495.1,1156.4L1495.1,1156.4z"/>
								</g>
							</g>
						</g>
					</g>
					<g class="st6">
						<g>
							<g>
								<g>
									<path class="st3" d="M1495.1,1156.4L1495.1,1156.4L1495.1,1156.4z"/>
								</g>
							</g>
						</g>
					</g>
					<g class="st6">
						<g>
							<g>
								<g>
									<path class="st3" d="M1495.1,1156.4L1495.1,1156.4L1495.1,1156.4z"/>
								</g>
							</g>
						</g>
					</g>
					<g class="st6">
						<g>
							<g>
								<g>
									<path class="st3" d="M1495.1,1156.4L1495.1,1156.4L1495.1,1156.4z"/>
								</g>
							</g>
						</g>
					</g>
					<g class="st6">
						<g>
							<g>
								<g>
									<path class="st3" d="M1495.1,1156.4L1495.1,1156.4L1495.1,1156.4z"/>
								</g>
							</g>
						</g>
					</g>
					<g class="st6">
						<g>
							<g>
								<g>
									<path class="st3" d="M1495.1,1156.4L1495.1,1156.4L1495.1,1156.4z"/>
								</g>
							</g>
						</g>
					</g>
					<g class="st6">
						<g>
							<g>
								<g>
									<path class="st3" d="M1495.1,1156.4L1495.1,1156.4L1495.1,1156.4z"/>
								</g>
							</g>
						</g>
					</g>
					<g class="st6">
						<g>
							<g>
								<g>
									<path class="st3" d="M1495.1,1156.4L1495.1,1156.4L1495.1,1156.4z"/>
								</g>
							</g>
						</g>
					</g>
					<g class="st6">
						<g>
							<g>
								<g>
									<path class="st3" d="M1495.1,1156.4L1495.1,1156.4L1495.1,1156.4z"/>
								</g>
							</g>
						</g>
					</g>
					<g class="st6">
						<g>
							<g>
								<g>
									<path class="st3" d="M1495.1,1156.4L1495.1,1156.4L1495.1,1156.4z"/>
								</g>
							</g>
						</g>
					</g>
					<g class="st6">
						<g>
							<g>
								<g>
									<path class="st3" d="M1495.1,1156.4L1495.1,1156.4L1495.1,1156.4z"/>
								</g>
							</g>
						</g>
					</g>
					<g class="st6">
						<g>
							<g>
								<g>
									<path class="st3" d="M1495.1,1156.4L1495.1,1156.4L1495.1,1156.4z"/>
								</g>
							</g>
						</g>
					</g>
					<g class="st6">
						<g>
							<g>
								<g>
									<path class="st3" d="M1495.1,1156.4L1495.1,1156.4L1495.1,1156.4z"/>
								</g>
							</g>
						</g>
					</g>
					<g class="st6">
						<g>
							<g>
								<g>
									<path class="st3" d="M1495.1,1156.4L1495.1,1156.4L1495.1,1156.4z"/>
								</g>
							</g>
						</g>
					</g>
					<g class="st6">
						<g>
							<g>
								<g>
									<path class="st3" d="M1495.1,1156.4L1495.1,1156.4L1495.1,1156.4z"/>
								</g>
							</g>
						</g>
					</g>
					<g class="st6">
						<g>
							<g>
								<g>
									<path class="st3" d="M1495.1,1156.4L1495.1,1156.4L1495.1,1156.4z"/>
								</g>
							</g>
						</g>
					</g>
					<g class="st6">
						<g>
							<g>
								<g>
									<path class="st3" d="M1495.1,1156.4L1495.1,1156.4L1495.1,1156.4z"/>
								</g>
							</g>
						</g>
					</g>
					<g class="st6">
						<g>
							<g>
								<g>
									<path class="st3" d="M1495.1,1156.4L1495.1,1156.4L1495.1,1156.4z"/>
								</g>
							</g>
						</g>
					</g>
					<g class="st6">
						<g>
							<g>
								<g>
									<path class="st3" d="M1495.1,1156.4L1495.1,1156.4L1495.1,1156.4z"/>
								</g>
							</g>
						</g>
					</g>
					<g class="st6">
						<g>
							<g>
								<g>
									<path class="st3" d="M1495.1,1156.4L1495.1,1156.4L1495.1,1156.4z"/>
								</g>
							</g>
						</g>
					</g>
					<g class="st6">
						<g>
							<g>
								<g>
									<path class="st3" d="M1495.1,1156.4L1495.1,1156.4L1495.1,1156.4z"/>
								</g>
							</g>
						</g>
					</g>
					<g class="st6">
						<g>
							<g>
								<g>
									<path class="st3" d="M1495.1,1156.4L1495.1,1156.4L1495.1,1156.4z"/>
								</g>
							</g>
						</g>
					</g>
					<g class="st6">
						<g>
							<g>
								<g>
									<path class="st3" d="M1495.1,1156.4L1495.1,1156.4L1495.1,1156.4z"/>
								</g>
							</g>
						</g>
					</g>
					<g class="st6">
						<g>
							<g>
								<g>
									<path class="st3" d="M1495.1,1156.4L1495.1,1156.4L1495.1,1156.4z"/>
								</g>
							</g>
						</g>
					</g>
					<g class="st6">
						<g>
							<g>
								<g>
									<path class="st3" d="M1495.1,1156.4L1495.1,1156.4L1495.1,1156.4z"/>
								</g>
							</g>
						</g>
					</g>
					<g class="st6">
						<g>
							<g>
								<g>
									<path class="st3" d="M1495.1,1156.4L1495.1,1156.4L1495.1,1156.4z"/>
								</g>
							</g>
						</g>
					</g>
					<g class="st6">
						<g>
							<g>
								<g>
									<path class="st3" d="M1495.1,1156.4L1495.1,1156.4L1495.1,1156.4z"/>
								</g>
							</g>
						</g>
					</g>
					<g class="st6">
						<g>
							<g>
								<g>
									<path class="st3" d="M1495.1,1156.4L1495.1,1156.4L1495.1,1156.4z"/>
								</g>
							</g>
						</g>
					</g>
					<g class="st6">
						<g>
							<g>
								<g>
									<path class="st3" d="M1495.1,1156.4L1495.1,1156.4L1495.1,1156.4z"/>
								</g>
							</g>
						</g>
					</g>
					<g class="st6">
						<g>
							<g>
								<g>
									<path class="st3" d="M1495.1,1156.4L1495.1,1156.4L1495.1,1156.4z"/>
								</g>
							</g>
						</g>
					</g>
					<g class="st6">
						<g>
							<g>
								<g>
									<path class="st3" d="M1495.1,1156.4L1495.1,1156.4L1495.1,1156.4z"/>
								</g>
							</g>
						</g>
					</g>
					<g class="st6">
						<g>
							<g>
								<g>
									<path class="st3" d="M1495.1,1156.4L1495.1,1156.4L1495.1,1156.4z"/>
								</g>
							</g>
						</g>
					</g>
					<g class="st6">
						<g>
							<g>
								<g>
									<path class="st3" d="M1495.1,1156.4L1495.1,1156.4L1495.1,1156.4z"/>
								</g>
							</g>
						</g>
					</g>
					<g class="st6">
						<g>
							<g>
								<g>
									<path class="st3" d="M1495.1,1156.4L1495.1,1156.4L1495.1,1156.4z"/>
								</g>
							</g>
						</g>
					</g>
					<g class="st6">
						<g>
							<g>
								<g>
									<path class="st3" d="M1495.1,1156.4L1495.1,1156.4L1495.1,1156.4z"/>
								</g>
							</g>
						</g>
					</g>
					<g class="st6">
						<g>
							<g>
								<g>
									<path class="st3" d="M1495.1,1156.4L1495.1,1156.4L1495.1,1156.4z"/>
								</g>
							</g>
						</g>
					</g>
					<g class="st6">
						<g>
							<g>
								<g>
									<path class="st3" d="M1495.1,1156.4L1495.1,1156.4L1495.1,1156.4z"/>
								</g>
							</g>
						</g>
					</g>
					<g class="st6">
						<g>
							<g>
								<g>
									<path class="st3" d="M1495.1,1156.4L1495.1,1156.4L1495.1,1156.4z"/>
								</g>
							</g>
						</g>
					</g>
					<g class="st6">
						<g>
							<g>
								<g>
									<path class="st3" d="M1495.1,1156.4L1495.1,1156.4L1495.1,1156.4z"/>
								</g>
							</g>
						</g>
					</g>
					<g class="st6">
						<g>
							<g>
								<g>
									<path class="st3" d="M1495.1,1156.4L1495.1,1156.4L1495.1,1156.4z"/>
								</g>
							</g>
						</g>
					</g>
					<g class="st6">
						<g>
							<g>
								<g>
									<path class="st3" d="M1495.1,1156.4L1495.1,1156.4L1495.1,1156.4z"/>
								</g>
							</g>
						</g>
					</g>
					<g class="st6">
						<g>
							<g>
								<g>
									<path class="st3" d="M1495.1,1156.4L1495.1,1156.4L1495.1,1156.4z"/>
								</g>
							</g>
						</g>
					</g>
					<g class="st6">
						<g>
							<g>
								<g>
									<path class="st3" d="M1495.1,1156.4L1495.1,1156.4L1495.1,1156.4z"/>
								</g>
							</g>
						</g>
					</g>
					<g class="st6">
						<g>
							<g>
								<g>
									<path class="st3" d="M1495.1,1156.4L1495.1,1156.4L1495.1,1156.4z"/>
								</g>
							</g>
						</g>
					</g>
					<g class="st6">
						<g>
							<g>
								<g>
									<path class="st3" d="M1495.1,1156.4L1495.1,1156.4L1495.1,1156.4z"/>
								</g>
							</g>
						</g>
					</g>
					<g class="st6">
						<g>
							<g>
								<g>
									<path class="st3" d="M1495.1,1156.4L1495.1,1156.4L1495.1,1156.4z"/>
								</g>
							</g>
						</g>
					</g>
					<g class="st6">
						<g>
							<g>
								<g>
									<path class="st3" d="M1495.1,1156.4L1495.1,1156.4L1495.1,1156.4z"/>
								</g>
							</g>
						</g>
					</g>
					<g class="st6">
						<g>
							<g>
								<g>
									<path class="st3" d="M1495.1,1156.4L1495.1,1156.4L1495.1,1156.4z"/>
								</g>
							</g>
						</g>
					</g>
					<g class="st6">
						<g>
							<g>
								<g>
									<path class="st3" d="M1495.1,1156.4L1495.1,1156.4L1495.1,1156.4z"/>
								</g>
							</g>
						</g>
					</g>
					<g class="st6">
						<g>
							<g>
								<g>
									<path class="st3" d="M1495.1,1156.4L1495.1,1156.4L1495.1,1156.4z"/>
								</g>
							</g>
						</g>
					</g>
					<g class="st6">
						<g>
							<g>
								<g>
									<path class="st3" d="M1495.1,1156.4L1495.1,1156.4L1495.1,1156.4z"/>
								</g>
							</g>
						</g>
					</g>
					<g class="st6">
						<g>
							<g>
								<g>
									<path class="st3" d="M1495.1,1156.4L1495.1,1156.4L1495.1,1156.4z"/>
								</g>
							</g>
						</g>
					</g>
					<g class="st6">
						<g>
							<g>
								<g>
									<path class="st3" d="M1495.1,1156.4L1495.1,1156.4L1495.1,1156.4z"/>
								</g>
							</g>
						</g>
					</g>
					<g class="st6">
						<g>
							<g>
								<g>
									<path class="st3" d="M1495.1,1156.4L1495.1,1156.4L1495.1,1156.4z"/>
								</g>
							</g>
						</g>
					</g>
					<g class="st6">
						<g>
							<g>
								<g>
									<path class="st3" d="M1495.1,1156.4L1495.1,1156.4L1495.1,1156.4z"/>
								</g>
							</g>
						</g>
					</g>
					<g class="st6">
						<g>
							<g>
								<g>
									<path class="st3" d="M1495.1,1156.4L1495.1,1156.4L1495.1,1156.4z"/>
								</g>
							</g>
						</g>
					</g>
					<g class="st6">
						<g>
							<g>
								<g>
									<path class="st3" d="M1495.1,1156.4L1495.1,1156.4L1495.1,1156.4z"/>
								</g>
							</g>
						</g>
					</g>
					<g class="st6">
						<g>
							<g>
								<g>
									<path class="st3" d="M1495.1,1156.4L1495.1,1156.4L1495.1,1156.4z"/>
								</g>
							</g>
						</g>
					</g>
					<g class="st6">
						<g>
							<g>
								<g>
									<path class="st3" d="M1495.1,1156.4L1495.1,1156.4L1495.1,1156.4z"/>
								</g>
							</g>
						</g>
					</g>
					<g class="st6">
						<g>
							<g>
								<g>
									<path class="st3" d="M1495.1,1156.4L1495.1,1156.4L1495.1,1156.4z"/>
								</g>
							</g>
						</g>
					</g>
					<g class="st6">
						<g>
							<g>
								<g>
									<path class="st3" d="M1495.1,1156.4L1495.1,1156.4L1495.1,1156.4z"/>
								</g>
							</g>
						</g>
					</g>
					<g class="st6">
						<g>
							<g>
								<g>
									<path class="st3" d="M1495.1,1156.4L1495.1,1156.4L1495.1,1156.4z"/>
								</g>
							</g>
						</g>
					</g>
					<g class="st6">
						<g>
							<g>
								<g>
									<path class="st3" d="M1495.1,1156.4L1495.1,1156.4L1495.1,1156.4z"/>
								</g>
							</g>
						</g>
					</g>
					<g class="st6">
						<g>
							<g>
								<g>
									<path class="st3" d="M1495.1,1156.4L1495.1,1156.4L1495.1,1156.4z"/>
								</g>
							</g>
						</g>
					</g>
					<g class="st6">
						<g>
							<g>
								<g>
									<path class="st3" d="M1495.1,1156.4L1495.1,1156.4L1495.1,1156.4z"/>
								</g>
							</g>
						</g>
					</g>
					<g class="st6">
						<g>
							<g>
								<g>
									<path class="st3" d="M1495.1,1156.4L1495.1,1156.4L1495.1,1156.4z"/>
								</g>
							</g>
						</g>
					</g>
					<g class="st6">
						<g>
							<g>
								<g>
									<path class="st3" d="M1495.1,1156.4L1495.1,1156.4L1495.1,1156.4z"/>
								</g>
							</g>
						</g>
					</g>
					<g class="st6">
						<g>
							<g>
								<g>
									<path class="st3" d="M1495.1,1156.4L1495.1,1156.4L1495.1,1156.4z"/>
								</g>
							</g>
						</g>
					</g>
					<g class="st6">
						<g>
							<g>
								<g>
									<path class="st3" d="M1495.1,1156.4L1495.1,1156.4L1495.1,1156.4z"/>
								</g>
							</g>
						</g>
					</g>
					<g class="st6">
						<g>
							<g>
								<g>
									<path class="st3" d="M1495.1,1156.4L1495.1,1156.4L1495.1,1156.4z"/>
								</g>
							</g>
						</g>
					</g>
					<g class="st6">
						<g>
							<g>
								<g>
									<path class="st3" d="M1495.1,1156.4L1495.1,1156.4L1495.1,1156.4z"/>
								</g>
							</g>
						</g>
					</g>
					<g class="st6">
						<g>
							<g>
								<g>
									<path class="st3" d="M1495.1,1156.4L1495.1,1156.4L1495.1,1156.4z"/>
								</g>
							</g>
						</g>
					</g>
					<g class="st6">
						<g>
							<g>
								<g>
									<path class="st3" d="M1495.1,1156.4L1495.1,1156.4L1495.1,1156.4z"/>
								</g>
							</g>
						</g>
					</g>
					<g class="st6">
						<g>
							<g>
								<g>
									<path class="st3" d="M1495.1,1156.4L1495.1,1156.4L1495.1,1156.4z"/>
								</g>
							</g>
						</g>
					</g>
					<g class="st6">
						<g>
							<g>
								<g>
									<path class="st3" d="M1495.1,1156.4L1495.1,1156.4L1495.1,1156.4z"/>
								</g>
							</g>
						</g>
					</g>
					<g class="st6">
						<g>
							<g>
								<g>
									<path class="st3" d="M1495.1,1156.4L1495.1,1156.4L1495.1,1156.4z"/>
								</g>
							</g>
						</g>
					</g>
				</g>
			</g>
		</g>
	</g>
	<g>
		<g>
			<g>
				<g>
					<g>
						<path class="st3" d="M1530.2,770.1l-14.5,29.5c-0.3,0.6-0.7,1-1.2,1.3l-0.6,0.3l0,0l-54.8,26.6c-0.9,0.4-1.8,0.6-2.7,0.4h-0.1
							l0,0c-3.4-0.6-6.3-1.4-9.5-2.8c-1.6-0.7-3.2-1.6-4.7-2.8c-0.8-0.6-1.6-1.4-2.3-2.2c-0.4-0.4-0.7-0.9-1-1.5l-0.4-0.7l-0.2-0.5
							c-2.5-4.9-5.2-10.1-7.9-15.1l-16.1-30.3l0.1,0.2c-0.5-0.9-0.8-1.4-1.1-2.2c-0.3-0.7-0.6-1.4-0.8-2c-0.5-1.4-0.8-2.8-1.1-4.2
							c-0.6-2.8-0.8-5.6-0.7-8.4c0.1-2.8,0.6-5.6,1.2-8.1c0.5-2.3,0.6-4.8,0.6-7.3c0-5-0.7-10.1-1.6-15.1s-2.2-10.1-3.6-15l0,0
							c-0.2-0.7,0.2-1.4,0.9-1.6c0.7-0.2,1.4,0.2,1.6,0.8c1.8,5,3.3,10,4.6,15.1c1.3,5.1,2.3,10.3,2.7,15.7c0.2,2.7,0.2,5.5-0.3,8.3
							c-0.4,2.6-0.7,4.9-0.6,7.3c0.1,2.4,0.4,4.8,1,7c0.3,1.1,0.7,2.2,1.1,3.3c0.2,0.5,0.5,1,0.7,1.5s0.6,1,0.7,1.3v0.1l0.1,0.2
							l17.9,29.3c3,4.9,5.9,9.7,8.9,14.9c0.8,2.4,6.6,4.2,11.2,4.7l0,0l-2.8,0.4l55.5-24.9l0,0l-1.8,1.6l19-26.8
							c0.5-0.7,1.4-0.8,2.1-0.4C1530.4,768.6,1530.5,769.4,1530.2,770.1z"/>
					</g>
				</g>
			</g>
		</g>
	</g>
	<g>
		<g>
			<g>
				<g>
					<g>
						<path class="st3" d="M1428.9,731.3c-3.1-2.1-6.7-3.4-10.4-3.4c-1.8,0-3.6,0.3-5.6,0.9c-2,0.6-4.1,1.6-6.5,2.3
							c-2.4,0.8-5,1.2-7.5,1.1c-2.5-0.1-4.9-0.6-7.2-1.3c-4.5-1.5-8.5-4-12.1-6.7c-0.1-0.1-0.1-0.3-0.1-0.4c0.1-0.1,0.2-0.1,0.3-0.1
							c4,2,8.2,3.7,12.5,4.3s8.4,0.1,12-1.8c1.8-0.9,3.6-2.2,5.8-3.4c2.2-1.2,4.8-2.2,7.4-2.6c5.3-1,10.9,0,15.8,2.1l0.2,0.1
							c2.6,1.1,3.8,4.1,2.7,6.7c-1.1,2.6-4.1,3.8-6.7,2.7C1429.4,731.6,1429.1,731.5,1428.9,731.3z"/>
					</g>
				</g>
			</g>
		</g>
	</g>
	<g>
		<g>
			<g>
				<g>
					<g>
						<path class="st3" d="M1462.7,715.2c4.5-2.8,9.9-4.6,15.3-4.4c2.7,0,5.4,0.7,7.7,1.5c2.3,0.9,4.3,1.8,6.3,2.5
							c3.8,1.4,8,1.3,12.1,0c4.1-1.2,8.1-3.5,11.8-6.1c0.1-0.1,0.2,0,0.3,0c0.1,0.1,0.1,0.2,0,0.3c-3.2,3.2-6.7,6.3-11,8.5
							c-2.1,1.1-4.4,1.9-6.9,2.4c-2.4,0.5-5.1,0.5-7.5,0.1c-2.5-0.4-4.7-1-6.8-1.3c-2-0.3-3.9-0.4-5.7-0.1c-3.7,0.6-7,2.4-9.8,4.9
							c-2.1,1.9-5.3,1.7-7.2-0.4c-1.9-2.1-1.7-5.3,0.4-7.2c0.2-0.2,0.5-0.4,0.7-0.5L1462.7,715.2z"/>
					</g>
				</g>
			</g>
		</g>
	</g>
	<g>
		<g>
			<g>
				<g>
					<g>
						<path class="st3" d="M1486.4,1161.3c-16.3-5.5-32.4-11.8-48.3-18.8c-7.9-3.5-15.8-7.2-23.5-11c-7.7-3.9-15.4-8.1-23.1-12.1
							c-4-2.1-5.5-7-3.4-11s7-5.5,11-3.4c0.3,0.1,0.5,0.3,0.7,0.4l0.3,0.2c7,4.7,14,9.5,21.1,14.2c7.1,4.6,14.4,9,21.7,13.2
							c14.7,8.5,29.8,16.4,45.3,23.6c1.3,0.6,1.9,2.1,1.3,3.4C1489,1161.1,1487.6,1161.7,1486.4,1161.3z"/>
					</g>
				</g>
			</g>
		</g>
	</g>
	<g>
		<g>
			<g>
				<g>
					<g>
						<path class="st3" d="M1627.7,1106.6c10.3,11.6,18.2,24.6,24.7,38.1c3.2,6.8,6.2,13.7,8.8,20.7c2.6,7,5,14,7.2,21.1
							c4.4,14.2,8,28.6,10.9,43.2c2.8,14.5,5.1,29.2,6.3,44c0,0.3-0.2,0.6-0.5,0.6s-0.5-0.2-0.6-0.5c-2-14.6-4.9-29.1-8.5-43.3
							c-3.6-14.3-7.9-28.3-12.9-42.1c-2.5-6.9-5.2-13.7-8.1-20.4c-2.9-6.7-6-13.2-9.5-19.6c-7-12.7-15.2-24.7-25.1-34.8l0,0
							c-2-2-2-5.2,0-7.2s5.2-2,7.2,0C1627.5,1106.4,1627.6,1106.5,1627.7,1106.6z"/>
					</g>
				</g>
			</g>
		</g>
	</g>
	<g>
		<g>
			<g>
				<g>
					<g>
						<path class="st3" d="M1674.3,883.7c8.2,12.4,15.4,25.2,22.1,38.2c6.6,13.1,12.9,26.2,18.1,40.3c1.3,3.6,2.6,7.2,3.5,11.5
							l2,10.7c1.3,7.1,2.5,14.2,3.7,21.4c2.4,14.3,4.6,28.5,6.6,42.8c4.2,28.5,7.9,57.1,11.4,85.7c3.5,28.5,6.7,57.3,9.7,85.7v0.2
							c0.2,1.8-1.1,3.4-2.9,3.6c-1.7,0.2-3.3-1.1-3.6-2.8c-4.2-28.7-8.6-56.9-13.3-85.3c-4.7-28.3-9.6-56.6-14.9-84.8
							c-2.7-14.1-5.4-28.2-8.4-42.2c-1.5-7-2.9-14-4.6-21l-2.4-10.4c-0.6-2.8-1.7-5.9-2.9-9.1c-4.9-12.8-11.2-25.6-17.7-38.1
							c-6.6-12.5-13.7-24.7-21.5-36.1l0,0c-2.8-4.2-1.8-9.9,2.4-12.7C1665.7,878.3,1671.4,879.4,1674.3,883.7
							C1674.2,883.6,1674.3,883.7,1674.3,883.7z"/>
					</g>
				</g>
			</g>
		</g>
	</g>
	<g>
		<g>
			<g>
				<g>
					<g>
						<path class="st3" d="M1538.7,2262.1c-6.5-44.4-28.9-75.1-38.4-87.8c-5.9-7.9-27.4-35.5-65.8-57.6
							c-44.8-25.8-86.2-29-104.3-30.2c-56.1-3.7-98.4,12.2-123.5,21.9c-45.9,17.8-77.3,40.7-104.3,63.1
							c-36.7,30.6-30,26.1-70.7,64.6l0,0c-22.9,21.5-44,42-74.2,56.5c-15.2,7.3-35.8,16.6-63.8,18.1c-16.4,0.9-67.5,3.7-95-33.9
							c-13.8-18.9-18.1-47.6-9-70.1c2.9-7.3,7.6-13.1,11.3-18.1c0.2-0.2,10.1-12.6,20.4-18.1l-0.9,0.2c9.3-6,21.4-12.8,34.8-16.1
							c11.1-2.7,43.5-8.1,65.6,4.5c5.7,3.3,24.9,15.8,27.1,43c1.7,20.4-8.3,35.6-24.9,43c-7.2,3.2-20.1,4.5-27.1-2.3
							c-3.2-3.1-5.6-8.7-4.5-13.6c0.9-4.3,3.8-4.6,6.8-11.3c1.6-3.5,3.2-7.1,2.3-11.3c-1.2-5.7-6.1-8.7-6.8-9
							c-6.7-3.9-15.3-1.4-20.4,2.3c-9.5,6.9-9.1,19.8-9,22.6c0.5,19.5,18.9,30.8,20.4,31.7c14.6,8.7,32,5.5,36.2,4.5
							c11-2.5,18.4-7.6,20.7-9.2c0,0,10-6.7,15.5-15.7c10.1-16.3,13.6-45.2-4.5-67.8c-32-40-83.7-33.9-117.6-20.4
							c-19.6,7.8-27.1,13.6-66.9,44.8c-10.4,8.2-25,15.8-46.1,25.3c-22,9.9-50.8,20-85.9,22.6c-37.1,2.8-59-4.6-70.1-9
							c-22.6-9-38.2-23.9-47.5-45.2c-2-4.6-6.8-22.6-0.3-40.4c3.2-8.7,10.1-15.3,13.9-18.4c17.6-14.1,38.3-11.5,38.3-11.8
							c-0.1-0.4-29-5.4-49.4,13.7c-18,16.9-17.2,41.4-16.5,49.4c3.3,35,35,56.3,41.2,60.4c55.4,37.1,156.8,25.1,222.2-24.7
							c1.5-1.1,2.9-2.2,4.1-3.2c-8.6,17.8-7.2,35.8-7,38.3c0,0,0.1,0.5,0.1,1.1c3.7,34.7,29.3,56,38.4,62.4
							c29.1,20.4,60.8,23.6,85.9,22.6c45.6-1.8,81.1-22.6,88.2-27.1c24.9-15.8,31.7-20.4,63.3-52c44.7-44.7,72.6-72.3,108.6-97.3
							c47.4-32.8,91.3-47.8,92.7-45.2c0.9,1.7-17.6,6.8-40.9,26.9c-17.8,15.3-52,45.6-63.1,93.3c-6.6,28.4,1.4,53.6,4.5,54
							c4.3,0.5-13.6-40.1,28.4-95.1c25.9-33.8,54-50.1,68.6-57.6c49.7-25.5,95.2-19.9,104.3-19.2c38.9,3,66.3,14.7,79.5,21.9
							c14.1,7.6,46.9,25.9,71.3,63.1c20.2,30.8,24.7,65.8,24.7,65.8c-2.8-9.3-9.2-26.1-24-42.3c-17.9-19.5-38.1-27-45.2-29.4
							c-26.8-8.8-49.3-4.3-58.8-2.3c-36.9,7.9-62.4,31.6-61.1,33.9c1.4,2.4,30.3-22.8,71.2-23.1c2.9,0,53.2-4.1,82.3,35.7
							c35.8,49,26.3,130.9-24.5,172.9c-37,30.5-87.8,33.3-124.4,20.4c-11.6-4.1-31.7-11.3-47.5-31.7c-25-32.2-22.6-72.4,9.9-98.5
							c0,0,22-17.5,60.2-10.1c13.7,2.6,23.6,9.2,23.6,9.2c0.4,0.3,0.7,0.5,1,0.6c8.6,5.9,13.9,13.4,16.1,17.3
							c5.9,10.6,8.6,30.8-2.3,40.7c-4.1,3.8-12.7,8.3-20.4,4.5c-0.8-0.4-1.4-1.1-1.4-1.1c-2.7-2.7-2-6.9-2.2-8.4
							c-1-13.2-19.5-20.9-30.4-15.4c-4.5,2.3-6.8,4.5-8.5,9.1c-1.9,5-1,9.5-0.6,11.3c3.8,15.1,22.6,27.3,40.7,27.1
							c18-0.1,30-11.9,31.7-13.6c17.7-17.9,18.7-49.7,6.8-70.1c-18.9-32.3-62.2-40.5-92.7-33.9c-9.2,2-34.3,9-52,32.7
							c-26.9,36.1-12.7,78.7-11.4,82.6c10.7,30.6,35.4,48.2,45.2,54.3c58.8,36.2,142.5,27.1,194.5-29.4
							C1547.9,2351,1540.8,2276.6,1538.7,2262.1z"/>
					</g>
				</g>
			</g>
		</g>
	</g>
	<g>
		<g class="st0">
			<g>
				<g>
					<g>
						<g>
							<g>
								<path class="st1" d="M1447.4,628.5"/>
							</g>
						</g>
					</g>
				</g>
			</g>
		</g>
		<g>
			<g>
				<g>
					<g>
						<g>
							<g>
								<path class="st2" d="M1451.4,624.4"/>
							</g>
						</g>
					</g>
				</g>
			</g>
		</g>
	</g>
	<g>
		<g>
			<g>
				<g>
					<g>
						<path class="st3" d="M1208.2,1265.9c-9-18.1-35.8-25.2-56.1-18.4c-21.3,7.2-29.1,27.4-30.2,30.2c-8.8,23.7,3.9,44.2,5.5,46.6
							c14.1,21.8,39.1,24.2,43.9,24.7c34.3,3.3,59.5-15.3,68.5-26.6c27.7-34.6,13.6-72.4,6.8-85.9c-19.9-39.8-55.5-56.7-69.8-63
							c-56.4-25-119.5-6.1-135.6,6.1c-0.6,0.4,9.4-3.5,8.7-4.2c-2.5-2.2,24.2-23.2,43-61.1c4.1-8.2,26.4-43,31.7-90.5
							c4.5-40.7-2.3-88.2-24.9-117.6c-9.1-11.9-43.5-51.1-101.1-53.8c-7.1-0.3-53.6-2.9-82.3,32.9c-17.4,21.7-25.1,56.1-13.3,82
							c2.8,6.2,17.7,28.2,43.5,33.3c20.5,4,45.9-6.9,53.8-26.5c0.6-1.4,6.8-17.7-2.3-31.7c-1.9-2.9-9.9-14.2-22.6-13.6
							c-1,0-13.2,0.9-18.1,11.3c-3.2,6.8-2.7,16.4,2.3,20.4c6,4.8,15.3-1.2,20.4,4.5c1.8,2,2.4,4.7,2.3,6.8
							c-0.6,8.4-15,16.1-27.1,15.8c-17.4-0.3-27.2-17.1-29.4-20.4c-1.3-2-13.6-24.9-3.8-49c12-29.8,41.3-42.8,68.6-43.9
							c52.8-2.1,80.9,32.9,86.8,40.9c21.4,29.3,24.9,58.7,24.9,90.5c0,45.2-23.5,90.4-31.7,106.3c-23.4,45.4-65.9,82.9-93.7,105.2
							c-28.8,23.1-76.7,61.6-150.9,76.8c-28.2,5.8-108.4,21-192-21.9c-24.5-12.6-87.2-50.4-112.5-134.4
							c-4.1-13.7-24.7-68.6,8.2-142.7c7.7-17.4,33.5-55.8,85-74.1c11.6-4.1,74.7-23.1,130.1,10.1c6.6,4,36.6,20.4,52,65.6
							c5.5,16,12,50.1-9.3,83.4c-7.3,11.4-17.7,20.8-31,25.5c-2.4,0.8-16.1,5.6-32.1,1.9c-3.8-0.9-6.9-2.2-8.9-3.2
							c0,0-1.2-0.6-2.4-1.3c-16.3-9.7-20.4-24.9-20.4-24.9c-3.1-11.3-1.2-29.7,11.3-36.2c9.6-5,23.9-2.2,27.1,4.5
							c2.8,5.9-3.4,11.9,0,20.4c0.9,2.1,2.7,4.4,6.8,6.8c7.3,4.2,19-0.1,24.9-6.8c9.2-10.5,6.2-29.5-2.3-40.7
							c-13.4-17.8-42.3-18-61.1-9c-13.9,6.6-20.9,17.6-22.6,20.4c-15.7,25.8-8.1,65.5,20.4,85.9c28.4,20.4,60.6,9.3,68.2,6.1
							c42.6-17.5,55.9-55.5,58.4-65c22.6-83.7-28.4-127.9-33.9-133.4c-47.5-47.5-111.6-45.7-128.9-45.2
							c-90.5,2.3-140.2,76.9-150.7,95.5c0,0-47.3,82.5-2.7,183.8c19.8,44.9,44,66.3,44,66.4l0,0c0,0-55.7-44.9-112.2-78.8
							c-27.8-16.7-74.8-42.9-131.2-45.2c-30.1-1.2-95.5,1.3-140.8,52.2c-5.3,6-45.5,52.5-32.9,112.5c2.1,10.1,11.7,55.8,54.9,76.8
							c30,14.6,70.4,12.8,96.3-1.7c9.4-5.3,34.6-21.8,38.4-52c3-23.7-4.8-42.3-24.9-52c-18.9-9.1-47.5-4.5-57.7,15.2
							c-0.6,1.2-5.4,10.9-1.1,21c4.1,9.6,13.5,12.8,15.8,13.6c13.8,4.3,26.2-3.5,27.1-11.3c0.8-6.7-6-10.7-4.5-18.1
							c0.8-4.1,5.3-7.5,9.3-7.9c8.4-0.7,18.4,8.8,20.1,19.2c4.5,27.1-13.3,42.7-15.8,45.2c-18.1,18.1-49.1,23.5-74.6,15.8
							c-33.8-10.1-53.7-42.5-58.8-72.4c-8.7-51.6,27.8-88.4,33.1-92.9c42.6-36.6,92.8-39.8,134.2-33.7c41.3,6,80.9,29.8,101.7,42
							c52.1,30.4,61.1,39.5,101.5,65.8c8.5,5.6,92.3,73.2,200.3,82.3c40.2,3.4,132.7-4.8,208.5-52.1c21.9-13.7,27.4-16.5,85-57.6
							c31.6-22.5,51.3-31.8,85.5-35.1c12.1-1.2,45.5-5,85.9,18.1c15.8,9,32.4,25.4,40.7,47.5c6.8,18.1,11.2,43.1-6.8,65.6
							c-9,11.3-28.7,22.1-54.5,19.2c-13.4-1.5-31.5-10.2-35.7-27.4c-4.8-19.9,6.5-41.5,24.6-43.8s28,9.2,27.6,16.3
							c-0.2,3.8-2.7,6.3-2.7,6.3c-2.2,2.2-4.5,1.9-6.8,4.5c-1.5,1.8-2,3.6-2.3,4.5c-1.1,4.2,0.1,8.8,2.3,11.3
							c4.6,5.5,16.1,4.6,22.6,0C1214,1297,1214.7,1278.9,1208.2,1265.9z"/>
					</g>
				</g>
			</g>
		</g>
	</g>
	<g>
		<g>
			<g>
				<g>
					<g>
						<circle class="st3" cx="429.1" cy="1075.5" r="27.5"/>
					</g>
				</g>
			</g>
		</g>
	</g>
	<g>
		<g>
			<g>
				<g>
					<g>
						<circle class="st3" cx="1537.3" cy="2450.6" r="27.5"/>
					</g>
				</g>
			</g>
		</g>
	</g>
	<g>
		<g>
			<g>
				<g>
					<g>
						<path class="st3" d="M1812.9,1265.9c9-18.1,35.8-25.2,56.1-18.4c21.3,7.2,29.1,27.4,30.2,30.2c8.8,23.7-3.9,44.2-5.5,46.6
							c-14.1,21.8-39.1,24.2-43.9,24.7c-34.3,3.3-59.5-15.3-68.5-26.6c-27.7-34.6-13.6-72.4-6.8-85.9c19.9-39.8,55.5-56.7,69.8-63
							c56.4-25,119.5-6.1,135.6,6.1c0.6,0.4-9.4-3.5-8.7-4.2c2.5-2.2-24.2-23.2-43-61.1c-4.1-8.2-26.4-43-31.7-90.5
							c-4.5-40.7,2.3-88.2,24.9-117.6c9.1-11.9,43.5-51.1,101.1-53.8c7.1-0.3,53.6-2.9,82.3,32.9c17.4,21.7,25.1,56.1,13.3,82
							c-2.8,6.2-17.7,28.2-43.5,33.3c-20.5,4-45.9-6.9-53.8-26.5c-0.6-1.4-6.8-17.7,2.3-31.7c1.9-2.9,9.9-14.2,22.6-13.6
							c1,0,13.2,0.9,18.1,11.3c3.2,6.8,2.7,16.4-2.3,20.4c-6,4.8-15.3-1.2-20.4,4.5c-1.8,2-2.4,4.7-2.3,6.8
							c0.6,8.4,15,16.1,27.1,15.8c17.4-0.3,27.2-17.1,29.4-20.4c1.3-2,13.6-24.9,3.8-49c-12-29.8-41.3-42.8-68.6-43.9
							c-52.8-2.1-80.9,32.9-86.8,40.9c-21.4,29.3-24.9,58.7-24.9,90.5c0,45.2,23.5,90.4,31.7,106.3c23.4,45.4,65.9,82.9,93.7,105.2
							c28.8,23.1,76.7,61.6,150.9,76.8c28.2,5.8,108.4,21,192-21.9c24.5-12.6,87.2-50.4,112.5-134.4c4.1-13.7,24.7-68.6-8.2-142.7
							c-7.7-17.4-33.5-55.8-85-74.1c-11.6-4.1-74.7-23.1-130.1,10.1c-6.6,4-36.6,20.4-52,65.6c-5.5,16-12,50.1,9.3,83.4
							c7.3,11.4,17.7,20.8,31,25.5c2.4,0.8,16.1,5.6,32.1,1.9c3.8-0.9,6.9-2.2,8.9-3.2c0,0,1.2-0.6,2.4-1.3
							c16.3-9.7,20.4-24.9,20.4-24.9c3.1-11.3,1.2-29.7-11.3-36.2c-9.6-5-23.9-2.2-27.1,4.5c-2.8,5.9,3.4,11.9,0,20.4
							c-0.9,2.1-2.7,4.4-6.8,6.8c-7.3,4.2-19-0.1-24.9-6.8c-9.2-10.5-6.2-29.5,2.3-40.7c13.4-17.8,42.3-18,61.1-9
							c13.9,6.6,20.9,17.6,22.6,20.4c15.7,25.8,8.1,65.5-20.4,85.9c-28.4,20.4-60.6,9.3-68.2,6.1c-42.6-17.5-55.9-55.5-58.4-65
							c-22.6-83.7,28.4-127.9,33.9-133.4c47.5-47.5,111.6-45.7,128.9-45.2c90.5,2.3,140.2,76.9,150.7,95.5c0,0,47.3,82.5,2.7,183.8
							c-19.8,44.9-44,66.3-44,66.4l0,0c0,0,55.7-44.9,112.2-78.8c27.8-16.7,74.8-42.9,131.2-45.2c30.1-1.2,95.5,1.3,140.8,52.2
							c5.3,6,45.5,52.5,32.9,112.5c-2.1,10.1-11.7,55.8-54.9,76.8c-30,14.6-70.4,12.8-96.3-1.7c-9.4-5.3-34.6-21.8-38.4-52
							c-3-23.7,4.8-42.3,24.9-52c18.9-9.1,47.5-4.5,57.7,15.2c0.6,1.2,5.4,10.9,1.1,21c-4.1,9.6-13.5,12.8-15.8,13.6
							c-13.8,4.3-26.2-3.5-27.1-11.3c-0.8-6.7,6-10.7,4.5-18.1c-0.8-4.1-5.3-7.5-9.3-7.9c-8.4-0.7-18.4,8.8-20.1,19.2
							c-4.5,27.1,13.3,42.7,15.8,45.2c18.1,18.1,49.1,23.5,74.6,15.8c33.8-10.1,53.7-42.5,58.8-72.4c8.7-51.6-27.8-88.4-33.1-92.9
							c-42.6-36.6-92.8-39.8-134.2-33.7c-41.3,6-80.9,29.8-101.7,42c-52.1,30.4-61.1,39.5-101.5,65.8c-8.5,5.6-92.3,73.2-200.3,82.3
							c-40.2,3.4-132.7-4.8-208.5-52.1c-21.9-13.7-27.4-16.5-85-57.6c-31.6-22.5-51.3-31.8-85.5-35.1c-12.1-1.2-45.5-5-85.9,18.1
							c-15.8,9-32.4,25.4-40.7,47.5c-6.8,18.1-11.2,43.1,6.8,65.6c9,11.3,28.7,22.1,54.5,19.2c13.4-1.5,31.5-10.2,35.7-27.4
							c4.8-19.9-6.5-41.5-24.6-43.8s-28,9.2-27.6,16.3c0.2,3.8,2.7,6.3,2.7,6.3c2.2,2.2,4.5,1.9,6.8,4.5c1.5,1.8,2,3.6,2.3,4.5
							c1.1,4.2-0.1,8.8-2.3,11.3c-4.6,5.5-16.1,4.6-22.6,0C1807.2,1297,1806.5,1278.9,1812.9,1265.9z"/>
					</g>
				</g>
			</g>
		</g>
	</g>
	<g>
		<g>
			<g>
				<g>
					<g>
						<path class="st3" d="M1410.2,714c-0.1,0-0.2,0-0.3,0c-1.1-0.1-1.9-1.2-1.7-2.3c0.3-1.9,0.9-3.8,1.5-5.6c0.9-2.7,1.7-5.3,1.5-8
							c-1.6-21.5,7.5-36.8,27.7-46.8c1-0.5,2.2-0.1,2.7,0.9c0.5,1,0.1,2.2-0.9,2.7c-18.9,9.3-27,23-25.5,43c0.3,3.5-0.8,6.7-1.7,9.6
							c-0.6,1.7-1.1,3.3-1.3,4.9C1412,713.3,1411.2,714,1410.2,714z"/>
					</g>
				</g>
			</g>
		</g>
	</g>
	<g>
		<g>
			<g>
				<g>
					<g>
						<circle class="st3" cx="2592.1" cy="1075.5" r="27.5"/>
					</g>
				</g>
			</g>
		</g>
	</g>
	<g>
		<g>
			<g>
				<g>
					<g>
						<path class="st3" d="M2552.5,2127.2c-20.4-19.1-49.3-14.1-49.4-13.7c0,0.3,20.6-2.2,38.3,11.8c3.8,3,10.7,9.6,13.9,18.4
							c6.5,17.8,1.7,35.9-0.3,40.4c-9.3,21.4-24.9,36.2-47.5,45.2c-11.1,4.4-33,11.8-70.1,9c-35.1-2.6-64-12.7-85.9-22.6
							c-21.2-9.5-35.7-17.2-46.1-25.3c-39.8-31.2-47.3-36.9-66.9-44.8c-33.9-13.6-85.6-19.7-117.6,20.4
							c-18.1,22.6-14.7,51.5-4.5,67.8c5.6,9,15.5,15.7,15.5,15.7c2.2,1.7,9.7,6.7,20.7,9.2c4.1,0.9,21.6,4.2,36.2-4.5
							c1.5-0.9,19.8-12.2,20.4-31.7c0.1-2.8,0.4-15.7-9-22.6c-5.1-3.7-13.7-6.2-20.4-2.3c-0.6,0.4-5.6,3.4-6.8,9
							c-0.9,4.2,0.7,7.8,2.3,11.3c3,6.7,5.8,7,6.8,11.3c1.1,4.9-1.3,10.5-4.5,13.6c-7.1,6.8-19.9,5.5-27.1,2.3
							c-16.6-7.4-26.6-22.6-24.9-43c2.3-27.1,21.4-39.7,27.1-43c22.1-12.6,54.4-7.2,65.6-4.5c13.4,3.2,25.5,10.1,34.8,16.1l-0.9-0.2
							c10.3,5.5,20.2,17.9,20.4,18.1c3.7,5,8.4,10.8,11.3,18.1c9,22.5,4.8,51.2-9,70.1c-27.5,37.6-78.6,34.8-95,33.9
							c-28-1.5-48.5-10.8-63.8-18.1c-30.2-14.5-51.3-35.1-74.2-56.5l0,0c-40.7-38.4-33.9-33.9-70.7-64.6
							c-26.9-22.4-58.3-45.3-104.3-63.1c-25-9.7-67.3-25.7-123.5-21.9c-18.1,1.2-59.5,4.4-104.3,30.2
							c-38.4,22.1-59.9,49.7-65.8,57.6c-9.5,12.7-31.9,43.4-38.4,87.8c-2.1,14.5-9.2,88.9,43.2,145.9c52,56.5,135.7,65.6,194.5,29.4
							c9.8-6,34.5-23.7,45.2-54.3c1.4-3.9,15.5-46.5-11.4-82.6c-17.7-23.8-42.7-30.7-52-32.7c-30.5-6.6-73.9,1.6-92.7,33.9
							c-11.9,20.4-10.9,52.2,6.8,70.1c1.6,1.6,13.7,13.5,31.7,13.6c18.2,0.1,36.9-12.1,40.7-27.1c0.4-1.8,1.3-6.3-0.6-11.3
							c-1.7-4.6-4-6.8-8.5-9.1c-10.9-5.4-29.4,2.3-30.4,15.4c-0.1,1.5,0.5,5.7-2.2,8.4c0,0-0.6,0.7-1.4,1.1
							c-7.6,3.8-16.2-0.8-20.4-4.5c-10.9-9.9-8.2-30.1-2.3-40.7c2.2-3.9,7.5-11.4,16.1-17.3c0.2-0.2,0.6-0.4,1-0.6
							c0,0,10-6.6,23.6-9.2c38.3-7.4,60.2,10.1,60.2,10.1c32.5,26.1,34.9,66.3,9.9,98.5c-15.8,20.4-35.9,27.5-47.5,31.7
							c-36.6,13-87.4,10.2-124.4-20.4c-50.8-42-60.4-123.9-24.5-172.9c29.1-39.7,79.4-35.7,82.3-35.7c40.9,0.3,69.8,25.5,71.2,23.1
							c1.3-2.3-24.2-26-61.1-33.9c-9.5-2-32-6.6-58.8,2.3c-7.2,2.4-27.3,9.9-45.2,29.4c-14.9,16.2-21.2,33-24,42.3
							c0,0,4.5-35,24.7-65.8c24.4-37.2,57.2-55.5,71.3-63.1c13.3-7.2,40.6-18.9,79.5-21.9c9.1-0.7,54.5-6.4,104.3,19.2
							c14.5,7.5,42.7,23.8,68.6,57.6c42,55,24.1,95.6,28.4,95.1c3.1-0.3,11.1-25.5,4.5-54c-11.1-47.7-45.3-78-63.1-93.3
							c-23.3-20.1-41.8-25.3-40.9-26.9c1.4-2.6,45.4,12.4,92.7,45.2c36,24.9,63.8,52.5,108.6,97.3c31.7,31.7,38.4,36.2,63.3,52
							c7.1,4.5,42.6,25.3,88.2,27.1c25.1,1,56.8-2.3,85.9-22.6c9.1-6.3,34.7-27.6,38.4-62.4c0.1-0.5,0.1-1.1,0.1-1.1
							c0.2-2.5,1.7-20.5-7-38.3c1.3,1,2.6,2.1,4.1,3.2c65.4,49.8,166.8,61.8,222.2,24.7c6.1-4.1,37.8-25.4,41.2-60.4
							C2569.7,2168.6,2570.5,2144.1,2552.5,2127.2z"/>
					</g>
				</g>
			</g>
		</g>
	</g>
	<g>
		<g>
			<g>
				<g>
					<g>
						<path class="st3" d="M127.1,1363.2c230.3-3.8,460.6-5.8,690.9-7.1c115.2-0.8,230.3-1,345.5-1.5l345.5-0.5l345.5,0.5l172.7,0.6
							l86.4,0.3l86.4,0.5c230.3,1.3,460.6,3.3,690.9,7.1c-230.3,3.8-460.6,5.8-690.9,7.1l-86.4,0.5l-86.4,0.3l-172.7,0.6l-345.5,0.5
							l-345.5-0.5c-115.2-0.5-230.3-0.7-345.5-1.5C587.8,1368.9,357.4,1366.9,127.1,1363.2z"/>
					</g>
				</g>
			</g>
		</g>
	</g>
	<g>
		<g>
			<g>
				<g>
					<g>
						<path class="st3" d="M126,2072.2c230.3-3.8,460.6-5.8,690.9-7.1c115.2-0.8,230.3-1,345.5-1.5l345.5-0.5l345.5,0.5l172.7,0.6
							l86.4,0.3l86.4,0.5c230.3,1.3,460.6,3.3,690.9,7.1c-230.3,3.8-460.6,5.8-690.9,7.1l-86.4,0.5l-86.4,0.3l-172.7,0.6l-345.5,0.5
							l-345.5-0.5c-115.2-0.5-230.3-0.7-345.5-1.5C586.6,2078,356.3,2076,126,2072.2z"/>
					</g>
				</g>
			</g>
		</g>
	</g>
	<g>
		<g>
			<g>
				<g>
					<g>
						<path class="st3" d="M1510.2,1327.5c-51.8,0-102.1-10.2-149.4-30.2c-45.7-19.3-86.8-47-122-82.3
							c-35.3-35.3-62.9-76.3-82.3-122c-20-47.3-30.2-97.6-30.2-149.4s10.2-102.1,30.2-149.4c19.3-45.7,47-86.8,82.3-122
							c35.3-35.3,76.3-62.9,122-82.3c47.3-20,97.6-30.2,149.4-30.2s102.1,10.2,149.4,30.2c45.7,19.3,86.8,47,122,82.3
							c35.3,35.3,62.9,76.3,82.3,122c20,47.3,30.2,97.6,30.2,149.4s-10.2,102.1-30.2,149.4c-19.3,45.7-47,86.8-82.3,122
							c-35.3,35.3-76.3,62.9-122,82.3C1612.3,1317.3,1562,1327.5,1510.2,1327.5z M1510.2,578.7c-201.2,0-364.9,163.7-364.9,364.9
							s163.7,364.9,364.9,364.9c201.2,0,364.9-163.7,364.9-364.9S1711.4,578.7,1510.2,578.7z"/>
					</g>
				</g>
			</g>
		</g>
	</g>
	<g>
		<g>
			<g>
				<g>
					<g>
						<g>
							<path class="st7" d="M605.8,1927.8v30.9H344.5v-11.4v-8.1v-459.1h30.9v447.7H605.8z"/>
						</g>
					</g>
				</g>
			</g>
		</g>
		<g>
			<g>
				<g>
					<g>
						<g>
							<path class="st7" d="M1068,1958.7h-33.5l-2.9-7l-65.7-157.6H792.4l12.5-30.9h148l-96.6-231.5l-175.2,420.1l-2.9,7h-33.5
								l6.6-15.8l190.2-455.8l2.9-7h24l2.9,7l190.2,455.8L1068,1958.7z"/>
						</g>
					</g>
				</g>
			</g>
		</g>
		<g>
			<g>
				<g>
					<g>
						<g>
							<path class="st7" d="M1518,1958.7h-33.5l-2.9-7l-65.7-157.6h-173.4l12.5-30.9h148l-96.6-231.5l-175.2,420.1l-2.9,7h-33.5
								l6.6-15.8l190.2-455.8l2.9-7h24l2.9,7l190.2,455.8L1518,1958.7z"/>
						</g>
					</g>
				</g>
			</g>
		</g>
		<g>
			<g>
				<g>
					<g>
						<g>
							<path class="st7" d="M1865.1,1939.4l19.1,19.4h-43.7l-3.3-3.4l-216.5-220.5h-62.9v-11.4v-232v-11.4h30.9V1704h31.9
								l216.5-220.5l3.3-3.4h43.7l-19.1,19.4l-216.4,220L1865.1,1939.4z M1557.7,1776.6h30.9v182.1h-30.9V1776.6z"/>
						</g>
					</g>
				</g>
			</g>
		</g>
		<g>
			<g>
				<g>
					<g>
						<g>
							<path class="st7" d="M1967,1480.1v478.6h-31v-478.6H1967z M2294.8,1480.1v478.6h-30.9v-223.9h-255.3v-30.9h255.3V1480h30.9
								V1480.1z"/>
						</g>
					</g>
				</g>
			</g>
		</g>
		<g>
			<g>
				<g>
					<g>
						<g>
							<path class="st7" d="M2757.2,1958.7h-33.5l-2.9-7l-65.7-157.6h-173.4l12.5-30.9h148l-96.6-231.5l-175.2,420.1l-2.9,7H2334
								l6.6-15.8l190.2-455.8l2.9-7h24l2.9,7l190.2,455.8L2757.2,1958.7z"/>
						</g>
					</g>
				</g>
			</g>
		</g>
	</g>
</g>
<g class="st8">
	<path class="st9" d="M605.8,1927.8v30.9H344.5v-11.4v-8.1v-459.1h30.9v447.7H605.8z"/>
	<path class="st9" d="M1068,1958.7h-33.5l-2.9-7l-65.7-157.6H792.4l12.5-30.9h148l-96.6-231.5l-175.2,420.1l-2.9,7h-33.5l6.6-15.8
		l190.2-455.8l2.9-7h24l2.9,7l190.2,455.8L1068,1958.7z"/>
	<path class="st9" d="M1518,1958.7h-33.5l-2.9-7l-65.7-157.6h-173.4l12.5-30.9h148l-96.6-231.5l-175.2,420.1l-2.9,7h-33.5l6.6-15.8
		l190.2-455.8l2.9-7h24l2.9,7l190.2,455.8L1518,1958.7z"/>
	<path class="st9" d="M1865.1,1939.4l19.1,19.4h-43.7l-3.3-3.4l-216.5-220.5h-62.9v-11.4v-232v-11.4h30.9V1704h31.9l216.5-220.5
		l3.3-3.4h43.7l-19.1,19.4l-216.4,220L1865.1,1939.4z M1557.7,1776.6h30.9v182.1h-30.9V1776.6z"/>
	<path class="st9" d="M1967,1480.1v478.6h-31v-478.6H1967z M2294.8,1480.1v478.6h-30.9v-223.9h-255.3v-30.9h255.3V1480h30.9V1480.1z
		"/>
	<path class="st9" d="M2757.2,1958.7h-33.5l-2.9-7l-65.7-157.6h-173.4l12.5-30.9h148l-96.6-231.5l-175.2,420.1l-2.9,7H2334l6.6-15.8
		l190.2-455.8l2.9-7h24l2.9,7l190.2,455.8L2757.2,1958.7z"/>
</g>
</svg>
