<?xml version="1.0" standalone="no"?>
<!DOCTYPE svg PUBLIC "-//W3C//DTD SVG 20010904//EN"
 "http://www.w3.org/TR/2001/REC-SVG-20010904/DTD/svg10.dtd">
<svg version="1.0" xmlns="http://www.w3.org/2000/svg"
 width="1407.000000pt" height="1407.000000pt" viewBox="0 0 1407.000000 1407.000000"
 preserveAspectRatio="xMidYMid meet">
<metadata>
Created by potrace 1.11, written by Peter Selinger 2001-2013
</metadata>
<g transform="translate(0.000000,1407.000000) scale(0.100000,-0.100000)"
fill="#000000" stroke="none">
<path d="M6837 14064 c-1 -1 -67 -5 -147 -8 -242 -10 -563 -43 -790 -82 -19
-3 -46 -8 -60 -10 -21 -4 -163 -30 -260 -49 -44 -8 -163 -36 -215 -49 -27 -8
-113 -31 -190 -51 -294 -78 -701 -221 -950 -335 -33 -15 -94 -42 -135 -60 -86
-37 -353 -173 -485 -247 -1211 -676 -2216 -1722 -2841 -2956 -98 -193 -234
-494 -226 -501 3 -3 0 -6 -6 -6 -7 0 -12 -6 -12 -12 0 -7 -23 -71 -51 -143
-113 -289 -253 -754 -303 -1005 -3 -14 -7 -36 -11 -50 -11 -51 -55 -287 -60
-325 -3 -22 -8 -51 -10 -65 -3 -14 -7 -41 -10 -60 -2 -19 -9 -69 -14 -110 -27
-201 -31 -245 -48 -510 -14 -218 -7 -812 12 -965 2 -16 6 -66 9 -111 4 -44 8
-92 10 -105 7 -43 16 -113 21 -164 3 -27 7 -59 10 -70 2 -11 7 -42 10 -70 4
-27 18 -108 32 -180 13 -71 26 -141 29 -155 2 -14 13 -61 24 -105 10 -44 21
-91 24 -105 11 -62 79 -308 121 -445 180 -579 439 -1142 768 -1669 26 -41 151
-231 159 -241 4 -5 45 -62 90 -125 45 -63 84 -117 87 -120 3 -3 33 -41 66 -84
243 -322 694 -791 1020 -1063 473 -392 913 -679 1437 -936 472 -231 1000 -420
1488 -532 69 -16 362 -76 390 -80 31 -5 50 -8 125 -20 54 -9 104 -16 145 -21
25 -2 54 -6 65 -8 67 -13 240 -29 470 -43 221 -14 787 -8 995 12 25 2 74 7
110 10 78 7 113 11 263 30 169 22 432 72 667 125 290 67 658 183 968 306 179
71 194 78 467 205 195 91 564 300 785 445 131 86 378 259 390 274 3 3 21 17
40 30 19 13 37 27 40 30 3 3 39 33 80 65 67 53 228 190 335 285 73 65 430 424
502 505 60 67 136 157 235 274 143 169 387 518 565 807 64 104 235 419 282
519 193 410 311 713 425 1085 63 206 158 604 180 755 4 23 8 52 11 65 3 13 7
42 10 65 3 22 8 47 10 55 2 8 7 39 10 69 4 30 8 62 10 72 2 10 7 49 10 86 4
37 9 75 10 84 2 9 6 52 10 95 4 43 8 95 10 114 24 256 24 906 0 1107 -1 16 -6
64 -10 108 -3 44 -8 91 -10 105 -2 14 -7 54 -10 90 -4 36 -9 74 -11 84 -2 11
-6 40 -9 65 -3 25 -7 57 -10 71 -3 13 -7 42 -10 65 -3 22 -10 63 -15 90 -5 28
-12 61 -14 75 -139 761 -444 1570 -854 2265 -129 218 -254 406 -415 625 -39
52 -73 97 -76 100 -4 3 -19 22 -35 44 -42 56 -223 273 -277 331 -25 28 -72 79
-105 114 -704 765 -1612 1383 -2596 1767 -138 54 -270 102 -298 109 -8 2 -42
13 -75 25 -131 46 -524 153 -677 184 -289 58 -303 61 -377 72 -25 4 -55 8 -66
10 -18 4 -85 12 -227 30 -24 3 -56 7 -73 9 -16 2 -64 6 -105 10 -41 3 -97 8
-125 11 -134 12 -718 27 -728 18z m508 -638 c83 -4 168 -9 190 -11 22 -2 69
-7 105 -10 139 -13 277 -31 468 -61 85 -14 286 -55 407 -84 72 -17 137 -33
146 -35 9 -2 86 -24 170 -49 1031 -304 1947 -847 2710 -1606 102 -102 219
-223 260 -270 41 -46 82 -93 93 -105 49 -54 252 -313 326 -415 417 -579 710
-1165 930 -1855 17 -55 33 -107 35 -115 2 -8 17 -64 33 -125 67 -247 125 -537
157 -775 3 -25 8 -56 10 -70 4 -24 8 -62 21 -195 18 -194 27 -385 28 -605 0
-168 -10 -439 -19 -515 -2 -16 -6 -65 -10 -107 -3 -43 -8 -92 -11 -110 -2 -18
-6 -54 -9 -81 -3 -26 -7 -58 -10 -70 -2 -12 -7 -42 -10 -67 -3 -25 -7 -57 -10
-73 -3 -15 -10 -55 -15 -90 -6 -34 -19 -102 -30 -152 -10 -49 -22 -106 -25
-125 -3 -19 -11 -53 -17 -75 -5 -22 -11 -44 -13 -50 -52 -231 -169 -596 -275
-859 -107 -270 -294 -655 -395 -816 -12 -19 -52 -87 -90 -150 -137 -229 -353
-531 -544 -760 -53 -63 -103 -122 -111 -131 -8 -8 -60 -64 -115 -124 -55 -60
-123 -132 -151 -159 -169 -167 -315 -300 -449 -411 -33 -27 -65 -55 -72 -61
-33 -32 -335 -253 -458 -336 -533 -359 -1111 -633 -1731 -818 -209 -63 -553
-145 -690 -165 -22 -4 -46 -8 -54 -10 -8 -3 -31 -7 -50 -10 -207 -29 -328 -45
-395 -51 -44 -3 -93 -8 -110 -10 -110 -11 -308 -18 -550 -17 -335 0 -480 9
-760 44 -49 6 -108 13 -130 15 -22 2 -51 6 -64 9 -13 4 -87 17 -165 30 -465
79 -1051 261 -1491 463 -184 85 -459 226 -568 293 -26 16 -49 29 -51 29 -15 0
-380 240 -506 333 -36 26 -76 55 -89 65 -13 9 -29 22 -35 27 -6 6 -40 32 -76
60 -230 175 -591 514 -806 755 -27 30 -51 57 -54 60 -3 3 -30 34 -60 70 -30
36 -57 67 -60 70 -9 9 -144 182 -207 265 -310 414 -591 913 -788 1400 -85 210
-219 599 -240 695 -2 8 -19 78 -38 155 -42 164 -82 354 -102 475 -2 14 -6 39
-9 55 -2 17 -8 50 -11 75 -4 25 -9 52 -10 60 -1 8 -6 44 -10 80 -4 36 -9 74
-11 85 -2 11 -7 55 -10 99 -3 44 -8 91 -10 105 -17 134 -24 668 -11 881 10
155 23 305 32 370 2 14 6 54 10 90 3 36 8 72 10 80 3 8 12 62 21 120 22 141
20 133 39 230 27 142 104 446 155 615 209 687 556 1374 983 1942 164 220 169
225 197 257 15 17 69 81 121 141 113 133 476 498 614 616 55 47 152 127 215
178 63 51 122 98 130 105 9 6 76 55 150 108 639 456 1353 790 2100 985 96 25
186 47 199 49 12 3 51 11 85 19 34 8 79 17 100 21 39 6 60 10 106 19 61 12 95
17 260 39 96 13 209 27 250 31 41 3 93 8 115 10 22 2 98 7 170 10 71 4 130 7
131 8 5 5 373 -1 509 -7z"/>
<path d="M6035 12322 l-50 -3 -143 -642 c-79 -353 -145 -651 -147 -662 -14
-66 -168 -765 -185 -835 -20 -86 -149 -669 -156 -703 -2 -10 -5 -26 -8 -35 -3
-9 -7 -28 -10 -42 -2 -14 -13 -65 -25 -115 -17 -75 -194 -871 -206 -927 -2
-10 -41 -183 -86 -385 -45 -203 -85 -386 -90 -408 -4 -22 -35 -161 -69 -310
-33 -148 -63 -281 -65 -295 -5 -25 -6 -31 -24 -105 -6 -22 -12 -53 -15 -70 -3
-16 -8 -39 -10 -50 -3 -11 -16 -72 -31 -135 -14 -63 -27 -124 -29 -135 -2 -11
-11 -50 -20 -86 -8 -37 -17 -78 -20 -90 -2 -13 -10 -46 -16 -74 -6 -27 -14
-61 -16 -75 -3 -13 -14 -60 -24 -105 -10 -45 -21 -92 -24 -105 -2 -14 -10 -47
-16 -75 -6 -27 -13 -58 -15 -68 -2 -10 -6 -26 -9 -35 -3 -9 -8 -30 -11 -47 -8
-48 -12 -67 -24 -110 -5 -22 -13 -53 -15 -70 -3 -16 -9 -41 -12 -55 -3 -14
-12 -54 -20 -90 -8 -36 -17 -76 -20 -90 -3 -13 -12 -56 -20 -95 -9 -38 -17
-77 -19 -85 -9 -35 -64 -284 -71 -320 -3 -13 -39 -175 -81 -360 -41 -184 -77
-344 -80 -355 -2 -11 -6 -32 -8 -48 -2 -15 -6 -31 -9 -35 -2 -4 -7 -27 -11
-52 -4 -25 -9 -48 -12 -52 -2 -5 -6 -20 -9 -34 -3 -14 -23 -107 -45 -207 -23
-100 -43 -193 -45 -207 -3 -14 -9 -41 -14 -60 -5 -19 -19 -80 -30 -135 -12
-55 -23 -109 -26 -120 -3 -11 -7 -31 -10 -45 -3 -14 -9 -43 -14 -65 -5 -22
-10 -43 -10 -47 0 -5 1413 -8 3140 -8 1727 0 3140 4 3140 8 0 4 20 95 45 202
39 167 63 271 80 353 2 10 6 26 9 35 3 9 8 31 10 47 3 17 10 46 16 65 5 19 10
37 10 40 0 3 -1218 5 -2707 4 -1490 0 -2711 1 -2715 3 -3 2 -2 18 2 36 5 17
11 43 14 57 2 14 45 209 95 434 50 226 93 419 95 430 3 12 68 307 146 656 78
349 143 642 145 650 2 8 22 101 45 205 22 105 47 217 55 250 18 74 64 283 69
310 3 11 13 61 25 110 11 50 22 101 25 115 2 14 20 95 40 180 19 85 37 166 39
180 3 14 12 55 21 91 8 37 17 78 20 90 2 13 9 42 14 64 6 22 13 54 16 70 3 17
14 71 26 120 11 50 23 104 26 120 2 17 7 38 10 47 3 9 7 27 10 40 3 13 7 32 9
43 3 11 7 29 9 40 2 11 11 50 20 86 8 37 17 79 20 93 3 14 7 34 10 44 3 9 8
29 11 45 8 42 9 45 105 482 50 226 93 421 97 435 4 14 8 32 9 40 1 8 12 58 24
110 12 52 23 102 25 110 5 22 65 291 71 320 3 13 32 146 65 295 34 148 63 281
65 295 3 14 12 54 20 90 9 36 18 76 20 90 3 14 30 135 60 270 50 222 86 383
100 450 3 14 25 113 49 220 24 107 47 210 50 229 3 19 7 37 9 40 2 3 7 24 10
46 4 22 13 64 21 95 11 45 40 174 69 312 3 13 8 33 12 46 7 25 63 22 -446 25
-168 1 -328 1 -355 -1z"/>
</g>
</svg>
